<svg width="274" height="309" viewBox="0 0 274 309" fill="none" xmlns="http://www.w3.org/2000/svg">
<path d="M195.62 148.472L183.316 145.92C181.82 145.609 180.859 144.146 181.17 142.651L189.031 104.755C189.342 103.26 190.804 102.299 192.3 102.61L204.604 105.162C206.099 105.473 207.06 106.935 206.749 108.431L198.888 146.324C198.58 147.822 197.115 148.78 195.62 148.472Z" fill="url(#paint0_linear_307_3868)"/>
<path opacity="0.5" d="M196.801 145.005L183.927 142.336C182.723 142.086 181.887 141.094 181.737 139.939L181.174 142.654C180.863 144.149 181.824 145.611 183.319 145.922L195.624 148.474C197.119 148.783 198.581 147.825 198.892 146.329L199.334 144.204C198.682 144.849 197.765 145.206 196.801 145.005Z" fill="#B8C1C3"/>
<g opacity="0.8">
<path d="M203.237 119.424L205.757 107.538C205.844 107.115 205.763 106.682 205.524 106.319C205.288 105.956 204.921 105.709 204.5 105.621L192.198 103.069C192.112 103.051 192.027 103.04 191.945 103.036C191.157 102.997 190.441 103.552 190.28 104.328L187.818 116.19L203.237 119.424Z" fill="#D2FFFF"/>
</g>
<path d="M196.378 123.354L192.805 122.612C192.37 122.522 192.093 122.097 192.182 121.662L194.464 110.659C194.554 110.224 194.979 109.946 195.415 110.036L198.987 110.778C199.422 110.868 199.699 111.294 199.61 111.729L197.328 122.732C197.238 123.165 196.813 123.444 196.378 123.354Z" fill="#9DA8AA"/>
<path d="M197.262 117.608L194.322 116.998C194.048 116.941 193.872 116.675 193.929 116.4L195.071 110.893C195.129 110.619 195.395 110.443 195.669 110.5L198.61 111.11C198.884 111.167 199.06 111.436 199.002 111.708L197.86 117.216C197.805 117.487 197.536 117.663 197.262 117.608Z" fill="#28292E"/>
<path d="M195.454 149.268C195.454 149.268 193.615 148.902 190.401 148.263C188.8 147.917 186.854 147.495 184.622 147.014C184.05 146.881 183.526 146.785 182.862 146.61C182.055 146.35 181.418 145.87 180.957 145.18C180.509 144.501 180.293 143.638 180.405 142.794C180.547 142.011 180.697 141.431 180.848 140.717C182.061 135.23 183.476 128.824 184.991 121.966C185.746 118.535 186.525 114.99 187.318 111.388C187.706 109.585 188.098 107.767 188.49 105.945C188.698 105.091 188.749 103.99 189.532 103.229C190.237 102.475 191.346 102.139 192.352 102.355C196.019 103.123 199.686 103.888 203.298 104.642L204.651 104.917C205.119 105.013 205.616 105.248 205.99 105.561C206.759 106.203 207.173 107.236 207.053 108.223C206.698 110.004 206.346 111.762 206.002 113.493C204.665 120.39 203.416 126.827 202.347 132.346C201.284 137.865 200.398 142.464 199.778 145.684C199.7 146.064 199.641 146.489 199.518 146.883C199.356 147.38 199.144 147.725 198.88 148.053C198.352 148.679 197.713 149.018 197.176 149.183C196.069 149.486 195.446 149.234 195.454 149.268ZM195.785 147.676C195.784 147.655 196.118 147.806 196.73 147.657C197.029 147.576 197.393 147.397 197.702 147.054C197.849 146.895 197.995 146.642 198.069 146.449C198.175 146.15 198.229 145.804 198.329 145.384C199.04 142.183 200.057 137.61 201.277 132.124C202.49 126.636 203.905 120.233 205.422 113.372C205.782 111.662 206.148 109.92 206.518 108.16C206.624 107.349 206.289 106.493 205.657 105.955C205.047 105.387 204.108 105.347 203.198 105.125C199.586 104.381 195.915 103.625 192.246 102.872C191.412 102.7 190.506 102.985 189.934 103.61C189.305 104.203 189.267 105.137 189.055 106.063C188.69 107.893 188.327 109.717 187.965 111.525C187.259 115.145 186.563 118.707 185.893 122.156C184.554 129.054 183.305 135.491 182.236 141.007C182.11 141.678 181.986 142.332 181.864 142.974C181.815 143.467 181.951 143.952 182.216 144.335C182.467 144.716 182.909 144.99 183.256 145.095C183.769 145.218 184.406 145.326 184.949 145.435C187.188 145.88 189.14 146.268 190.748 146.587C193.953 147.279 195.785 147.676 195.785 147.676Z" fill="#231F20"/>
<path d="M192.026 145.814C192.048 145.616 192.073 145.438 192.011 145.281C191.82 144.79 190.5 144.54 190.015 144.482C189.522 144.422 188.528 144.385 188.452 145.072C188.4 145.54 188.664 145.986 188.682 146.452C188.712 147.246 188.579 148.041 188.379 148.806C188.183 149.554 187.913 150.314 187.361 150.852C186.153 152.024 184.861 150.646 183.541 151.52C182.608 152.135 182.131 153.392 183.183 154.155C183.959 154.717 188.411 155.95 187.809 157.468C187.562 158.092 185.496 158.174 184.946 158.248C184.15 158.354 183.195 158.298 182.429 158.553C181.159 158.975 180.402 160.774 181.654 161.679C182.451 162.256 183.16 162.197 184.015 162.462C184.963 162.758 187.666 163.39 186.487 165.07C186.357 165.257 186.172 165.398 185.981 165.523C185.076 166.117 184.005 166.401 183.059 166.925C182.342 167.324 180.902 168.536 181.228 169.544C181.563 170.578 183.538 170.464 184.372 170.488C185.853 170.53 188.406 170.65 186 172.137C184.854 172.846 181.719 173.802 181.802 175.527C181.887 177.332 183.614 177.381 185.017 177.181C185.793 177.071 186.6 176.935 187.357 176.73C188.282 176.483 189.397 176.711 188.935 177.94C188.667 178.657 187.811 179.383 187.332 179.966C186.515 180.96 184.709 183.174 186.74 183.93C188.221 184.483 192.018 181.442 192.933 183.527C193.626 185.107 189.527 186.658 188.775 187.661C187.456 189.418 189.613 190.056 191.023 190.249C191.861 190.365 192.778 190.223 193.595 190.375C194.932 190.625 195.323 191.838 194.15 192.712C193.134 193.468 191.629 193.208 190.686 194.125C189.597 195.184 190.075 196.196 191.478 196.565C192.753 196.9 193.979 197.032 195.068 197.863C195.668 198.321 195.402 198.515 194.838 198.846C194.046 199.309 193.48 199.536 192.557 199.672C191.668 199.801 190.738 199.908 189.934 200.343C186.902 201.974 190.988 203.964 192.437 204.491C193.315 204.811 195.725 205.883 194.024 207.021C193.742 207.211 193.406 207.297 193.071 207.357C192.027 207.543 191.313 207.258 190.317 207.144C189.582 207.059 188.581 206.93 187.959 207.438C187.782 207.582 187.607 207.749 187.48 207.94C186.221 209.856 190.149 211.517 191.27 212.319C192.445 213.158 191.051 213.855 190.158 213.742C189.174 213.616 188.279 213.119 187.305 212.978C183.758 212.465 184.735 215.587 186.911 216.961C187.613 217.404 189.457 218.969 188.371 219.706C187.49 220.3 186.201 220.044 185.357 219.544C184.482 219.025 183.377 218.195 182.303 218.437C181.344 218.653 181.143 219.548 181.354 220.399C181.459 220.822 181.645 221.216 181.881 221.579C182.479 222.496 183.022 223.388 183.246 224.477C183.455 225.491 182.384 225.612 181.637 225.405C180.569 225.111 179.67 224.036 179.001 223.208C178.674 222.803 178.35 222.374 177.895 222.125C177.437 221.877 176.803 221.868 176.454 222.255C176.226 222.507 176.17 222.869 176.164 223.209C176.154 223.774 176.26 224.337 176.253 224.904C176.246 225.698 175.877 226.571 175.188 227.016C175.057 227.101 174.913 227.168 174.758 227.185C173.429 227.33 173.426 224.829 173.488 223.991C173.536 223.352 173.611 222.641 173.119 222.125C172.511 221.486 171.28 221.906 170.76 222.457C170.447 222.791 170.228 223.202 170.014 223.607C169.67 224.262 169.326 224.915 168.981 225.568C168.68 226.139 168.285 226.777 167.647 226.854C167.013 226.931 166.446 226.372 166.28 225.758C165.989 224.668 166.637 223.638 166.77 222.574C166.843 222.001 167.025 221.39 166.869 220.832C166.564 219.747 165.523 219.193 164.674 220.097C164.271 220.528 159.935 225.46 159.981 222.264C160.002 220.714 163.071 217.013 161.882 216C161.132 215.364 159.806 215.689 159.148 216.257C158.431 216.874 156.448 217.688 155.596 217.065C154.278 216.102 156.343 214.803 157.046 214.321C157.998 213.666 159.133 213.037 159.571 211.902C159.891 211.071 158.383 210.201 157.635 210.529C157.022 210.576 156.413 210.732 155.795 210.708C155.2 210.685 153.794 210.707 153.326 210.328C152.916 209.997 153.015 209.329 153.179 208.897C153.825 207.203 158.648 207.171 157.892 204.916C157.597 204.034 156.721 203.687 155.871 203.559C155.286 203.47 154.689 203.477 154.098 203.493C153.604 203.506 152.922 203.663 152.444 203.525C151.656 203.298 151.242 202.509 151.76 201.852C152.74 200.61 154.659 200.227 156.016 199.572C157.364 198.918 157.677 196.811 155.94 196.488C155.196 196.349 154.431 196.3 153.695 196.116C153.13 195.974 152.058 195.766 151.699 195.241C151.378 194.775 151.625 194.255 152.127 194.064C152.98 193.739 153.86 193.488 154.734 193.229C155.665 192.955 156.996 192.69 157.152 191.49C157.226 190.909 156.793 190.429 156.323 190.16C155.451 189.661 154.399 189.746 153.442 189.561C152.547 189.385 151.217 189.065 151.038 187.994C150.774 186.417 154.235 186.348 155.066 186.261C156.71 186.09 158.682 184.478 156.861 182.892C156.095 182.226 154.561 182.286 153.613 182.071C152.954 181.92 152.391 181.718 152.029 181.11C151.749 180.641 151.629 179.985 152.195 179.676C152.833 179.328 153.705 179.166 154.403 178.977C155.083 178.791 155.755 178.591 156.426 178.379C157.627 177.999 158.68 176.858 157.589 175.703C157.093 175.178 156.412 175.061 155.745 174.861C155.275 174.719 152.02 173.962 152.209 173.213C152.34 172.696 153.341 172.594 153.746 172.536C154.524 172.428 155.316 172.148 156.1 172.18C156.752 172.207 157.243 172.18 157.855 171.871C158.873 171.36 159.755 170.219 158.646 169.282C157.404 168.232 155.481 168.106 154.094 167.155C152.156 165.826 154.88 165.163 156.065 165.027C157.267 164.89 159.297 164.87 160.126 163.823C161.572 161.996 157.1 160.639 156.169 160.277C150.782 158.178 160.364 157.627 161.068 156.681C162.392 154.9 160.219 153.966 158.841 153.568C157.897 153.296 154.415 150.396 154.071 151.879C153.667 153.627 156.201 154.842 154.541 155.934C153.523 156.605 152.729 157.681 152.582 158.912C152.387 160.517 153.301 161.238 154.281 162.282C155.217 163.281 153.582 163.142 152.993 163.438C152.182 163.844 151.732 164.434 151.465 165.326C151.156 166.357 151.341 167.464 151.949 168.354C152.398 169.01 154.232 169.471 154.366 170.127C152.357 169.879 149.664 171.965 150.631 174.189C150.911 174.836 153.524 176.613 152.266 177.133C150.578 177.831 149.304 178.919 149.556 180.948C149.663 181.816 150.023 182.319 150.648 182.868C151.221 183.37 152.478 183.845 151.649 184.711C151.197 185.183 149.762 185.132 149.667 185.939C148.858 186.936 148.768 188.517 149.416 189.643C149.793 190.302 151.196 190.492 151.334 191.228C151.444 191.812 150.717 192.074 150.339 192.29C149.678 192.665 149.163 193.313 148.937 194.038C148.667 194.905 148.804 195.892 149.303 196.65C149.598 197.098 150.035 197.373 150.481 197.649C150.699 197.783 151.539 198.167 151.51 198.497C151.463 199.033 150.491 199.557 150.135 199.871C149.11 200.773 149.158 202.211 149.602 203.396C149.833 204.008 150.167 204.588 150.576 205.097C150.891 205.486 151.591 205.836 151.56 206.424C151.532 206.946 150.828 207.572 150.583 208.052C150.015 209.168 150.317 210.089 150.938 211.128C151.566 212.175 152.025 212.569 153.223 212.806C154.61 213.08 154.31 213.762 153.533 214.623C151.782 216.563 153.923 219.592 156.178 219.668C159.019 219.766 156.973 221.664 157.743 223.551C158.148 224.546 159.271 225.349 160.259 225.673C161.534 226.089 162.74 224.677 163.838 225.077C164.202 225.209 164.287 225.707 164.37 226.04C164.512 226.609 164.636 227.416 165.005 227.888C165.458 228.471 166.369 228.766 167.06 228.907C168.108 229.121 169.482 228.996 170.203 228.119C170.987 227.163 171.363 226.976 172.047 228.085C173.277 230.073 176.32 230.89 177.742 228.55C177.905 228.283 178.418 226.867 178.79 226.849C179.561 226.816 180.259 227.853 181.029 228.032C183.609 228.636 186.019 226.434 185.837 223.862C185.782 223.067 185.922 222.616 186.818 222.583C188.244 222.53 189.199 222.311 190.136 221.118C190.918 220.123 191.143 219.139 190.606 217.981C190.032 216.747 190.004 216.179 191.376 215.851C193.894 215.246 195.083 212.9 193.345 210.704C192.815 210.034 192.484 209.526 193.488 209.186C194.969 208.686 195.949 208.063 196.248 206.405C196.439 205.343 196.322 204.109 195.606 203.251C195.3 202.886 194.846 202.656 194.88 202.098C194.914 201.529 195.857 201.216 196.246 200.89C196.706 200.503 197.058 200.027 197.266 199.46C197.647 198.435 197.304 197.087 196.498 196.349C196.076 195.962 194.857 195.453 194.886 194.769C194.91 194.141 196 193.305 196.335 192.798C196.787 192.115 197.065 191.327 196.881 190.503C196.539 188.969 195.29 188.554 194.064 187.909C193.411 187.564 195.141 185.424 195.138 184.446C195.134 183.074 194.505 181.59 193.297 180.861C192.369 180.299 190.443 180.964 190.723 179.342C190.98 177.846 191.741 176.512 190.279 175.331C189.762 174.912 187.604 174.699 187.408 174.072C187.177 173.332 188.999 171.957 189.088 171.045C189.249 169.38 188.025 169.688 187.226 168.766C186.275 167.67 187.752 166.939 188.358 166.269C188.796 165.784 189.06 164.866 189.027 164.216C188.961 162.917 187.372 162.059 187.502 160.954C187.631 159.868 189.038 159.557 189.492 158.69C190.006 157.707 190.078 156.276 189.356 155.378C188.416 154.211 188.51 153.814 189.413 152.757C190.232 151.805 191.694 148.885 192.026 145.814Z" fill="#23292B"/>
<path d="M52.5502 97.2322C50.2183 108.659 39.0632 116.029 27.6362 113.697C16.2092 111.366 24.6579 69.9864 36.0849 72.3183C47.5123 74.6524 54.8825 85.8075 52.5502 97.2322Z" fill="url(#paint1_linear_307_3868)"/>
<path d="M35.5806 114.671C32.8941 115.132 30.1623 115.087 27.4689 114.537C23.4033 113.706 21.233 108.781 21.3617 100.668C21.5341 89.6261 26.6298 72.7511 34.2231 71.446C34.9009 71.3295 35.5865 71.3392 36.2596 71.4785C42.0116 72.6529 46.961 75.9961 50.1975 80.8927C53.434 85.7892 54.5692 91.652 53.3948 97.4041C51.5631 106.346 44.5745 113.125 35.5806 114.671ZM34.5111 73.1353C28.5662 74.1571 23.2525 89.1429 23.0703 100.694C22.9608 107.786 24.6872 112.219 27.8082 112.856C30.2948 113.363 32.8106 113.406 35.2899 112.98C43.5835 111.554 50.03 105.304 51.7128 97.0602C52.7956 91.7598 51.7502 86.3522 48.7647 81.8368C45.7818 77.3232 41.2181 74.2406 35.9176 73.1578C35.4491 73.0622 34.9772 73.0552 34.5111 73.1353Z" fill="#231F20"/>
<path d="M141.524 159.647C144.405 153.319 143.651 146.6 141.597 140.434C140.94 138.458 140.016 136.375 138.182 135.392C136.499 134.487 134.456 134.729 132.564 134.996L132.159 139.413C133.065 148.605 131.662 152.581 128.118 158.629C127.935 158.941 128.077 159.35 128.37 159.559C131.013 161.447 133.997 162.851 137.138 163.681C137.499 163.777 137.878 163.865 138.243 163.786C138.75 163.676 139.133 163.262 139.458 162.858C140.258 161.861 140.995 160.809 141.524 159.647Z" fill="url(#paint2_linear_307_3868)"/>
<path opacity="0.4" d="M134.977 146.264C134.785 145.488 133.931 144.443 132.514 144.427C132.482 144.425 132.453 144.409 132.42 144.404C132.401 150.284 130.947 153.803 128.124 158.621C127.952 158.915 128.022 159.306 128.297 159.505C129.85 160.622 131.53 161.55 133.287 162.305C133.597 162.437 136.92 154.158 134.977 146.264Z" fill="url(#paint3_linear_307_3868)"/>
<path opacity="0.8" d="M133.805 145.875C133.445 145.87 133.276 149.082 132.168 152.766C131.625 154.61 130.845 156.144 130.155 157.176C129.805 157.689 129.505 158.102 129.271 158.372C129.054 158.659 128.954 158.857 129.005 158.927C129.056 158.997 129.258 158.93 129.59 158.741C129.938 158.568 130.365 158.223 130.842 157.733C131.786 156.75 132.784 155.099 133.362 153.134C134.544 149.189 134.132 145.849 133.805 145.875Z" fill="url(#paint4_linear_307_3868)"/>
<path d="M138.334 164.641C137.82 164.729 137.352 164.624 136.918 164.508C133.661 163.647 130.619 162.216 127.873 160.256C127.2 159.778 126.981 158.872 127.377 158.196C130.737 152.465 132.22 148.753 131.306 139.498L131.776 134.243L132.448 134.148C134.195 133.901 136.593 133.565 138.588 134.637C140.715 135.776 141.714 138.071 142.413 140.165C144.95 147.78 144.916 154.271 142.303 160.003C141.813 161.08 141.122 162.156 140.127 163.393C139.712 163.908 139.19 164.456 138.426 164.623L138.334 164.641ZM133.357 135.754L133.011 139.49C133.932 148.647 132.541 152.776 128.857 159.059C131.445 160.699 134.3 162.042 137.358 162.849C137.608 162.915 137.869 162.979 138.043 162.95L138.188 163.794L138.061 162.946C138.302 162.893 138.567 162.598 138.792 162.318C139.696 161.196 140.316 160.233 140.745 159.29C143.169 153.968 143.182 147.889 140.785 140.704C140.195 138.93 139.374 137.001 137.778 136.144C136.55 135.485 135.045 135.542 133.357 135.754Z" fill="#231F20"/>
<path d="M46.9378 39.4851L24.7482 148.159C70.0566 140.068 123.458 135.633 153.924 141.851L163.3 95.9264C132.836 89.7051 85.4476 64.6905 46.9378 39.4851Z" fill="url(#paint5_radial_307_3868)"/>
<path opacity="0.8" d="M161.006 105.921L163.302 95.9258C132.835 89.7049 85.4465 64.6903 46.9367 39.4849L39.9076 73.6929C39.9076 73.6929 110.976 94.037 161.006 105.921Z" fill="#C1CACC"/>
<path d="M32.4659 114.789L24.7474 148.156C70.0557 140.065 123.458 135.63 153.923 141.848L156.634 125.149C156.634 125.149 69.3504 114.879 32.4659 114.789Z" fill="#B8C1C3"/>
<path d="M167.666 148.209L134.106 142.067C144.137 148.615 130.356 187.853 126.78 199.324C126.245 201.039 127.032 202.882 128.599 203.512C132.468 205.061 137.053 205.65 140.583 206.388C142.586 206.806 144.795 205.615 145.299 203.493C149.076 187.642 159.131 154.046 167.666 148.209Z" fill="url(#paint6_radial_307_3868)"/>
<path d="M137.62 155.023C152.706 157.558 157.693 164.426 157.693 164.426C157.848 164.056 158.005 163.691 158.161 163.33C158.241 163.147 158.318 162.965 158.399 162.784C158.548 162.441 158.699 162.102 158.849 161.765C158.935 161.574 159.021 161.386 159.109 161.197C159.364 160.634 159.622 160.084 159.88 159.546C159.98 159.336 160.08 159.122 160.18 158.917C160.306 158.656 160.434 158.402 160.565 158.148C160.682 157.912 160.799 157.679 160.918 157.45C161.041 157.209 161.165 156.972 161.289 156.739C161.421 156.492 161.553 156.249 161.685 156.006C161.796 155.801 161.907 155.597 162.018 155.397C162.248 154.991 162.474 154.595 162.703 154.215C162.788 154.073 162.874 153.94 162.959 153.8C163.124 153.533 163.287 153.271 163.45 153.018C163.547 152.867 163.647 152.72 163.745 152.573C163.907 152.33 164.071 152.095 164.233 151.868C164.319 151.749 164.405 151.625 164.489 151.509C164.729 151.18 164.972 150.864 165.212 150.573C165.254 150.522 165.297 150.477 165.339 150.426C165.545 150.179 165.748 149.947 165.954 149.729C166.035 149.643 166.112 149.565 166.193 149.484C166.368 149.305 166.543 149.136 166.718 148.979C166.792 148.91 166.868 148.839 166.943 148.775C167.185 148.567 167.428 148.374 167.669 148.21L134.109 142.069C137.092 144.016 137.957 148.875 137.62 155.023Z" fill="#B8C1C3"/>
<path d="M142.233 207.254C141.62 207.359 141.004 207.349 140.405 207.225C139.564 207.049 138.661 206.882 137.727 206.709C134.714 206.149 131.3 205.516 128.282 204.305C126.312 203.517 125.293 201.216 125.963 199.068C126.277 198.064 126.668 196.846 127.113 195.458C131.251 182.587 142.246 148.402 133.641 142.782L130.079 140.457L169.872 147.738L168.154 148.912C160.349 154.248 150.506 185.342 146.136 203.687C145.695 205.523 144.167 206.921 142.233 207.254ZM136.55 143.383C142.611 152.86 133.377 181.577 128.743 195.982C128.299 197.366 127.909 198.576 127.596 199.578C127.191 200.876 127.772 202.256 128.917 202.715C131.778 203.862 135.104 204.477 138.04 205.023C138.988 205.199 139.903 205.37 140.757 205.548C142.361 205.885 144.102 204.83 144.468 203.292C147.489 190.613 156.894 157.52 165.733 148.723L136.55 143.383Z" fill="#231F20"/>
<path d="M47.5307 40.8612L25.5878 148.327L24.5974 147.312L24.5996 147.312C29.9503 146.448 35.3075 145.622 40.6735 144.874C46.037 144.112 51.4011 143.352 56.7821 142.705C62.159 142.048 67.5433 141.433 72.936 140.935C78.3267 140.398 83.7269 139.971 89.1324 139.614C91.8381 139.467 94.535 139.214 97.2404 139.092C99.947 138.963 102.65 138.758 105.358 138.692C108.067 138.618 110.774 138.466 113.483 138.457C116.194 138.45 118.904 138.343 121.615 138.415C124.325 138.469 127.039 138.447 129.75 138.603C132.461 138.714 135.173 138.82 137.878 139.07C140.591 139.22 143.294 139.493 145.997 139.814C148.71 140.046 151.384 140.615 154.084 141.004L154.094 141.005L153.084 141.672L162.459 95.7569L162.46 95.7497L163.128 96.7594C160.483 96.1034 157.786 95.6235 155.184 94.8141C152.558 94.09 149.944 93.3268 147.376 92.4375C144.778 91.6228 142.232 90.6763 139.684 89.7325C137.12 88.8285 134.621 87.765 132.095 86.7689C129.559 85.7904 127.098 84.6463 124.596 83.5925C122.094 82.5388 119.653 81.354 117.178 80.24C114.7 79.1335 112.283 77.9006 109.832 76.7384C107.379 75.5788 104.977 74.3202 102.552 73.1049C97.7204 70.6386 92.9082 68.1342 88.1831 65.4757C83.4312 62.8636 78.7359 60.149 74.0667 57.3974C65.0852 52.1089 56.2474 46.5778 47.5307 40.8612ZM47.4071 38.7657C56.4754 44.6537 65.6921 50.3122 75.0388 55.742C79.713 58.4555 84.4108 61.1303 89.1628 63.703C93.9022 66.2964 98.6632 68.8537 103.469 71.322C105.879 72.5423 108.267 73.8081 110.702 74.973C113.135 76.1428 115.539 77.3803 117.998 78.4925C120.455 79.6096 122.881 80.8039 125.362 81.8611C127.844 82.9183 130.291 84.0697 132.803 85.052C135.308 86.0543 137.787 87.1235 140.326 88.0295C142.849 88.9776 145.372 89.9279 147.94 90.7454C150.484 91.6367 153.064 92.4035 155.653 93.1315C158.223 93.9441 160.867 94.4239 163.473 95.0842L164.304 95.296L164.14 96.0962L164.14 96.1056L154.764 142.021L154.596 142.848L153.752 142.689L153.743 142.688C151.098 142.232 148.482 141.592 145.803 141.287C143.139 140.894 140.468 140.542 137.776 140.325C135.093 140.051 132.397 139.919 129.7 139.78C127.005 139.598 124.303 139.592 121.602 139.512C118.903 139.412 116.199 139.492 113.497 139.472C110.795 139.452 108.093 139.58 105.391 139.625C102.687 139.663 99.989 139.842 97.2872 139.944C94.585 140.045 91.8874 140.24 89.1899 140.434C83.7974 140.84 78.4079 141.316 73.0326 141.901C67.6525 142.446 62.2839 143.111 56.9219 143.815C51.5595 144.517 46.2084 145.297 40.8666 146.146C35.5315 147.033 30.2121 147.998 24.8993 149.001L24.897 149.002L23.6563 149.215L23.9066 147.987L46.3481 38.0807L47.4071 38.7657Z" fill="#231F20"/>
<path d="M19.2703 148.875L42.1779 36.6763C42.8124 33.5696 52.9338 38.5161 52.3279 41.4788L30.4879 148.438C29.8865 151.399 18.6362 151.984 19.2703 148.875Z" fill="#28292E"/>
<path d="M40.4647 94.4739L51.329 41.804C51.4874 41.0396 51.2306 40.2329 50.6263 39.7386C47.443 37.1211 44.7361 36.2904 43.5961 36.4423C43.3153 36.4813 43.1103 36.7182 43.0535 36.9946L31.7036 92.5857C34.7341 92.9922 37.654 93.6193 40.4647 94.4739Z" fill="#28292E"/>
<path d="M173.043 150.49L124.245 140.528C123.8 140.437 123.513 140.004 123.605 139.557L129.159 112.359L134.487 86.263C134.578 85.8185 135.013 85.5305 135.458 85.6233L184.256 95.5858C187.875 96.3247 190.209 99.8578 189.47 103.476L180.936 145.276C180.197 148.894 176.664 151.229 173.043 150.49Z" fill="url(#paint7_linear_307_3868)"/>
<path d="M185.118 120.251L188.311 104.617C188.955 101.46 186.919 98.381 183.764 97.7362L136.143 88.0141C135.451 87.8734 134.776 88.3185 134.635 89.0104L130.532 109.109C130.391 109.801 130.836 110.475 131.528 110.616L183.612 121.25C184.303 121.388 184.978 120.943 185.118 120.251Z" fill="#FD9483"/>
<g opacity="0.5">
<path d="M171.804 145.267L126.329 136.078C125.637 135.937 125.192 135.262 125.333 134.571L124.821 137.072C124.68 137.764 125.126 138.438 125.818 138.579L173.081 148.404C180.183 149.854 180.233 143.964 181.498 137.093C181.498 137.093 179.301 146.92 171.804 145.267Z" fill="url(#paint8_linear_307_3868)"/>
</g>
<path opacity="0.8" d="M24.68 101.494C23.2118 101.086 23.6179 95.0047 25.5889 87.9124C27.56 80.8202 30.3499 75.4026 31.8181 75.811C27.9522 83.8571 25.7108 92.4656 24.68 101.494Z" fill="#C1CACC"/>
<path d="M143.243 87.2112L142.053 86.9682C142.04 87.0122 142.009 87.0477 142.001 87.0932L130.825 141.834C130.822 141.846 130.826 141.857 130.824 141.869L131.982 142.105C131.982 142.094 131.971 142.082 131.973 142.07L143.15 87.3315C143.161 87.2856 143.202 87.246 143.243 87.2112Z" fill="#2C2E2E"/>
<path d="M26.497 151.57C23.8151 152.031 20.3142 151.896 18.9699 150.509C18.4855 150.01 18.2967 149.37 18.4304 148.705L41.338 36.5063C41.5166 35.6433 42.1728 35.0506 43.1433 34.8838C45.5731 34.4661 49.9312 36.6081 51.9182 38.6591C52.9358 39.7106 53.3591 40.7159 53.1669 41.6485L31.327 148.607C30.9412 150.53 28.1341 151.289 26.497 151.57ZM43.4363 36.5745C43.0625 36.6388 43.038 36.7658 43.02 36.8501L20.1124 149.049C20.09 149.148 20.0989 149.213 20.2024 149.316C20.8447 149.978 23.41 150.362 26.209 149.881C28.328 149.517 29.5481 148.792 29.6548 148.266L51.4947 41.3076C51.5618 40.9831 51.2619 40.4388 50.6951 39.8523C48.8985 38.0051 45.1027 36.2881 43.4363 36.5745Z" fill="#231F20"/>
<path d="M173.015 150.64C173.015 150.64 172.171 150.477 170.586 150.172C169.002 149.862 166.68 149.408 163.708 148.92C160.739 148.403 157.122 147.845 152.998 147.079C148.878 146.285 144.232 145.391 139.163 144.415C136.632 143.906 133.997 143.376 131.269 142.827C129.905 142.552 128.519 142.271 127.111 141.984C126.408 141.841 125.699 141.698 124.983 141.552L124.447 141.443C124.25 141.388 124.162 141.417 123.741 141.26C123.039 140.966 122.611 140.159 122.767 139.408C123.952 133.61 125.2 127.493 126.492 121.167C127.782 114.846 129.116 108.313 130.472 101.674C131.149 98.3559 131.833 95.0089 132.519 91.6499L133.55 86.604C133.609 86.3506 133.601 86.2777 133.715 85.8778C133.879 85.4161 134.189 85.1009 134.589 84.9069C134.934 84.6993 135.579 84.7415 135.754 84.8063L136.386 84.9342L138.914 85.4503C152.382 88.303 165.849 91.1561 178.475 93.829C180.053 94.1628 181.617 94.4945 183.169 94.8236C184.661 95.0587 186.467 95.5991 187.669 96.7533C188.925 97.8566 189.729 99.4017 189.976 101.001C190.097 101.8 190.098 102.619 189.939 103.402C189.787 104.14 189.635 104.871 189.486 105.599C188.272 111.388 187.124 116.862 186.063 121.913C185.003 126.966 184.03 131.596 183.168 135.701C182.265 139.807 181.648 143.381 180.844 146.336C179.69 149.322 177.106 150.461 175.541 150.688C174.724 150.833 174.083 150.774 173.662 150.74C173.232 150.675 173.015 150.64 173.015 150.64ZM173.077 150.342C173.077 150.342 173.284 150.374 173.688 150.432C174.092 150.46 174.703 150.51 175.478 150.363C176.964 150.135 179.406 149.006 180.452 146.204C181.194 143.346 181.795 139.691 182.645 135.599C183.461 131.485 184.383 126.843 185.389 121.78C186.394 116.716 187.482 111.231 188.634 105.43C188.895 103.952 189.356 102.535 189.067 101.15C188.833 99.7597 188.112 98.4275 187.015 97.494C185.904 96.505 184.577 96.1094 182.955 95.8573C181.4 95.5519 179.831 95.2443 178.247 94.9323C165.583 92.4444 152.077 89.7883 138.568 87.1327L136.04 86.6166L135.408 86.4864C135.168 86.4418 135.36 86.4762 135.313 86.461C135.322 86.4478 135.32 86.4737 135.34 86.4169L135.228 86.9486L134.196 91.9945C133.51 95.3535 132.828 98.6979 132.149 102.019C130.794 108.657 129.459 115.19 128.169 121.512C126.879 127.831 125.634 133.938 124.45 139.729C124.451 139.712 124.446 139.697 124.429 139.688L125.327 139.872C126.041 140.019 126.75 140.166 127.454 140.309C128.862 140.598 130.247 140.884 131.61 141.164C134.336 141.73 136.968 142.274 139.495 142.798C144.541 143.887 149.166 144.884 153.267 145.77C157.362 146.682 160.908 147.588 163.843 148.276C166.769 148.992 169.084 149.485 170.662 149.821C172.234 150.16 173.077 150.342 173.077 150.342Z" fill="#231F20"/>
<path d="M148.825 205.742C150.979 206.673 153.195 207.618 155.54 207.704C156.777 207.749 158.03 207.554 159.245 207.798C160.342 208.017 161.432 208.44 162.3 209.146C174.667 219.226 265.749 299.856 279.753 310.845C280.525 311.449 287.384 244.85 287.205 244.218C286.939 243.271 180.282 184.165 180.07 183.499C177.971 176.847 174.528 162.629 171.599 158.196C169.756 155.406 160.494 150.076 156.094 149.717C153.151 149.479 142.931 151.409 138.951 153.31C133.387 155.968 135.254 160.261 138.653 160.873C145.74 162.149 149.504 161.189 150.59 160.885C152.407 162.689 153.971 164.838 156.908 166.197C153.264 176.443 149.557 187.904 145.894 203.958C146.677 204.806 147.768 205.284 148.825 205.742Z" fill="#F9C996"/>
<path opacity="0.5" d="M174.412 210.387C165.679 203.711 156.285 196.872 156.035 184.923C155.817 174.497 157.024 171.686 159.499 164.946C157.507 164.664 151.402 160.182 150.788 158.848C150.232 159.064 143.029 159.388 140.107 158.993C138.441 158.768 137.134 158.42 136.273 156.518C135.917 158.397 136.609 160.506 138.657 160.877C145.744 162.154 149.508 161.194 150.594 160.889C152.411 162.693 153.975 164.842 156.911 166.202C153.268 176.447 149.561 187.909 145.898 203.962C146.681 204.808 147.769 205.287 148.826 205.743C150.98 206.673 153.196 207.618 155.541 207.704C156.778 207.749 158.031 207.555 159.246 207.798C160.343 208.017 161.433 208.44 162.301 209.146C174.668 219.227 265.75 299.856 279.754 310.845C280.132 311.141 281.97 295.304 283.728 278.998C271.403 273.104 197.227 227.822 174.412 210.387Z" fill="#FABC84"/>
<path d="M127.644 143.495C126.254 144.823 125.338 146.995 125.018 148.504C124.728 149.868 124.844 151.367 125.592 152.546C125.916 153.058 126.348 153.494 126.777 153.925C128.376 155.538 131.748 158.445 133.907 156.453C134.694 155.727 135.121 154.696 135.459 153.68C135.838 152.54 136.136 151.306 135.828 150.146C135.241 147.947 133.223 146.63 132.023 144.805C131.489 143.99 131.752 142.751 130.866 142.373C129.805 141.918 128.364 142.805 127.644 143.495Z" fill="#F9C996"/>
<path d="M148.657 171.3C145.303 169.226 138.717 166.952 134.813 164.417C134.396 164.148 130.64 161.124 128.642 162.907C127.793 163.662 127.092 165.598 126.765 166.649C126.223 168.391 126.22 170.387 127.187 171.934C127.939 173.143 129.186 173.951 130.426 174.651C135.469 177.501 139.906 178.551 145.609 179.583C149.931 180.368 151.295 172.93 148.657 171.3Z" fill="#F9C996"/>
<path opacity="0.5" d="M148.654 171.299C148.461 171.179 148.225 171.057 148.012 170.939C149.203 173.433 149.3 177.204 146.119 177.825C142.984 178.438 132.932 173.454 131.047 171.726C128.576 169.46 129.005 166.416 129.65 163.426C129.737 163.024 129.888 162.689 130.066 162.387C129.548 162.411 129.051 162.539 128.637 162.909C127.788 163.664 127.087 165.6 126.76 166.651C126.218 168.393 126.215 170.389 127.181 171.936C127.934 173.145 129.181 173.953 130.421 174.653C135.464 177.503 139.904 178.553 145.603 179.585C149.927 180.368 151.292 172.93 148.654 171.299Z" fill="#FABC84"/>
<path d="M143.85 180.43C140.075 178.673 135.489 177.727 131.346 175.599C130.904 175.373 126.859 172.746 125.052 174.724C124.285 175.563 123.785 177.559 123.564 178.638C123.202 180.425 123.404 182.412 124.519 183.855C125.392 184.982 126.714 185.657 128.017 186.228C133.324 188.55 137.986 189.152 140.776 189.145C145.172 189.134 146.659 181.737 143.85 180.43Z" fill="#F9C996"/>
<path opacity="0.5" d="M143.932 181.101C144.176 185.83 142.753 187.668 140.711 187.52C137.023 187.255 133.043 185.773 129.802 184.033C126.767 182.403 125.038 179.663 125.67 176.1C125.854 175.076 126.386 174.422 127.054 174.022C126.293 173.99 125.574 174.151 125.049 174.725C124.282 175.564 123.781 177.561 123.561 178.64C123.198 180.427 123.401 182.414 124.516 183.857C125.389 184.984 126.71 185.659 128.014 186.23C133.321 188.552 137.982 189.153 140.773 189.146C143.262 189.141 144.751 186.209 144.943 183.774C145.093 181.908 144.241 180.206 143.932 181.101Z" fill="#FABC84"/>
<path d="M140.218 190.592C136.837 189.321 132.805 188.806 129.082 187.239C128.685 187.073 125.011 185.069 123.58 186.898C122.971 187.675 122.669 189.436 122.551 190.383C122.355 191.954 122.662 193.658 123.722 194.833C124.551 195.749 125.738 196.246 126.905 196.655C131.65 198.313 135.723 198.524 138.134 198.335C141.938 198.033 142.736 191.537 140.218 190.592Z" fill="#F9C996"/>
<path opacity="0.5" d="M140.568 190.785C140.666 191.088 140.738 191.412 140.748 191.781C140.807 194.064 140.222 196.798 137.402 196.793C135.447 196.791 133.195 196.218 131.368 195.572C127.5 194.204 123.681 191.638 124.665 186.962C124.726 186.668 124.82 186.409 124.932 186.169C124.403 186.244 123.924 186.454 123.578 186.896C122.969 187.67 122.667 189.431 122.55 190.381C122.354 191.952 122.66 193.656 123.72 194.83C124.55 195.747 125.737 196.243 126.906 196.652C131.651 198.31 135.724 198.524 138.135 198.332C141.747 198.049 142.642 192.185 140.568 190.785Z" fill="#FABC84"/>
<path d="M279.908 311.694L279.536 311.756L279.226 311.519C271.268 305.276 238.426 276.548 209.451 251.204C187.674 232.157 167.106 214.166 161.76 209.809C161.083 209.257 160.155 208.851 159.08 208.637C158.393 208.5 157.667 208.523 156.895 208.549C156.434 208.563 155.975 208.577 155.513 208.562C152.977 208.467 150.592 207.437 148.489 206.53C147.408 206.065 146.185 205.533 145.271 204.545L144.966 204.214L145.064 203.773C148.784 187.471 152.587 175.851 155.852 166.629C153.787 165.514 152.379 164.012 151.122 162.673C150.858 162.394 150.597 162.116 150.335 161.844C148.708 162.237 144.779 162.847 138.506 161.721C136.418 161.345 134.85 159.843 134.598 157.985C134.465 156.986 134.584 154.454 138.586 152.542C141.301 151.246 146.379 150.079 149.901 149.473C152.698 148.993 154.983 148.771 156.168 148.869C160.864 149.251 170.362 154.771 172.32 157.729C174.557 161.114 177.027 169.822 179.013 176.818C179.673 179.146 180.282 181.287 180.808 182.98C183.163 184.502 205.23 196.866 226.596 208.838C287.79 243.129 287.847 243.328 288.035 243.989C288.142 244.372 281.876 309.16 280.526 311.286L280.32 311.609L279.908 311.694ZM146.84 203.679C147.487 204.231 148.34 204.597 149.167 204.955C151.228 205.846 153.359 206.764 155.573 206.847C155.993 206.863 156.413 206.849 156.837 206.834C157.669 206.807 158.534 206.781 159.414 206.954C160.781 207.227 161.933 207.741 162.841 208.48C168.21 212.857 187.844 230.028 210.576 249.914C238.422 274.272 269.841 301.751 279.26 309.355C280.695 300.926 286.052 249.975 286.339 244.631C282.893 242.346 251.307 224.647 225.753 210.327C179.451 184.382 179.427 184.309 179.253 183.755C178.703 182.011 178.059 179.75 177.358 177.278C175.406 170.395 172.976 161.829 170.884 158.667C169.185 156.095 160.165 150.906 156.025 150.57C154.992 150.485 152.809 150.705 150.188 151.156C146.502 151.789 141.713 152.942 139.324 154.083C137.218 155.089 136.114 156.424 136.294 157.752C136.441 158.853 137.474 159.791 138.807 160.03C145.439 161.225 149.283 160.362 150.362 160.061L150.842 159.927L151.197 160.279C151.594 160.674 151.978 161.084 152.369 161.499C153.72 162.936 155.116 164.425 157.27 165.423L157.978 165.751L157.717 166.487C154.446 175.685 150.6 187.289 146.84 203.679Z" fill="#231F20"/>
<path d="M132.788 157.93C130.496 158.324 127.924 156.297 126.169 154.527C125.737 154.091 125.246 153.596 124.87 153.004C124.054 151.721 123.812 150.058 124.18 148.324C124.514 146.759 125.465 144.391 127.054 142.873C127.98 141.988 129.904 141.029 131.202 141.58C132.14 141.98 132.335 142.872 132.477 143.52C132.548 143.839 132.613 144.138 132.739 144.332C133.138 144.941 133.649 145.495 134.184 146.085C135.189 147.185 136.228 148.323 136.654 149.921C137.032 151.326 136.673 152.744 136.274 153.946C135.919 155.011 135.43 156.213 134.487 157.08C133.998 157.535 133.426 157.821 132.788 157.93ZM130.002 143.124C129.388 143.23 128.675 143.696 128.237 144.114C127.016 145.281 126.163 147.25 125.859 148.679C125.587 149.955 125.756 151.196 126.317 152.085C126.596 152.522 126.98 152.91 127.387 153.32C129.434 155.382 131.296 156.448 132.498 156.242C132.807 156.189 133.08 156.051 133.328 155.821C133.98 155.219 134.349 154.305 134.649 153.407C134.967 152.449 135.26 151.334 135 150.366C134.681 149.171 133.825 148.233 132.919 147.241C132.36 146.628 131.782 145.994 131.306 145.274C131.005 144.816 130.899 144.324 130.804 143.891C130.713 143.482 130.645 143.208 130.53 143.159C130.39 143.099 130.214 143.088 130.002 143.124Z" fill="#231F20"/>
<path d="M146.894 180.444C146.43 180.524 145.944 180.519 145.452 180.43C140.178 179.475 135.379 178.435 130 175.4C128.659 174.643 127.303 173.754 126.452 172.391C125.449 170.774 125.261 168.589 125.942 166.398C126.383 164.984 127.111 163.125 128.07 162.269C128.498 161.887 129.008 161.642 129.589 161.542C131.766 161.168 134.296 162.993 135.125 163.593C137.329 165.032 140.159 166.298 142.897 167.522C145.27 168.584 147.513 169.587 149.103 170.573C150.74 171.583 151.092 174.007 150.711 175.96C150.236 178.402 148.774 180.121 146.894 180.444ZM129.879 163.231C129.618 163.276 129.397 163.381 129.208 163.548C128.711 163.99 128.086 165.278 127.578 166.907C127.045 168.621 127.165 170.291 127.91 171.484C128.519 172.465 129.525 173.163 130.845 173.908C135.987 176.812 140.639 177.816 145.757 178.743C146.052 178.796 146.338 178.801 146.603 178.755C147.99 178.517 148.776 176.923 149.027 175.633C149.337 174.033 148.99 172.516 148.201 172.028C146.705 171.105 144.515 170.123 142.194 169.085C139.399 167.833 136.506 166.541 134.34 165.135L134.121 164.98C131.829 163.327 130.55 163.116 129.879 163.231Z" fill="#231F20"/>
<path d="M141.548 189.934C141.3 189.977 141.042 190 140.778 189.999C138.899 190.005 133.865 189.72 127.673 187.01C126.262 186.392 124.824 185.647 123.84 184.376C122.673 182.871 122.265 180.715 122.722 178.464C122.96 177.283 123.497 175.148 124.418 174.143C124.882 173.633 125.486 173.313 126.202 173.19C128.269 172.835 130.761 174.273 131.579 174.747C133.961 175.976 136.348 176.781 138.658 177.559C140.62 178.219 142.47 178.842 144.209 179.651C145.655 180.326 146.369 182.141 146.069 184.39C145.745 186.82 144.219 189.475 141.548 189.934ZM126.492 174.879C126.154 174.937 125.891 175.075 125.682 175.301C125.229 175.796 124.739 177.139 124.404 178.806C124.046 180.569 124.336 182.216 125.197 183.327C125.904 184.242 126.974 184.832 128.361 185.44C134.257 188.018 139.007 188.289 140.775 188.284C142.882 188.281 144.117 186.061 144.372 184.16C144.564 182.727 144.206 181.537 143.485 181.202C141.835 180.433 140.026 179.823 138.114 179.18C135.744 178.382 133.293 177.556 130.952 176.357L130.723 176.227C128.881 175.169 127.458 174.713 126.492 174.879Z" fill="#231F20"/>
<path d="M138.586 199.139C138.462 199.158 138.338 199.175 138.207 199.186C136.576 199.313 132.182 199.403 126.627 197.46C125.352 197.016 124.041 196.458 123.088 195.404C121.958 194.157 121.454 192.287 121.701 190.276C121.863 188.989 122.202 187.266 122.907 186.366C123.345 185.809 123.95 185.459 124.704 185.329C126.458 185.028 128.584 186.049 129.281 186.383C131.409 187.283 133.523 187.82 135.564 188.34C137.309 188.782 138.958 189.201 140.519 189.789C141.92 190.315 142.696 192.025 142.496 194.139C142.288 196.328 141 198.724 138.586 199.139ZM124.995 187.018C124.664 187.075 124.426 187.204 124.255 187.423C123.913 187.86 123.579 189.06 123.402 190.484C123.215 192 123.562 193.373 124.358 194.252C125.054 195.023 126.13 195.47 127.19 195.84C132.439 197.676 136.547 197.596 138.071 197.475L138.296 197.448C139.809 197.188 140.649 195.465 140.791 193.975C140.912 192.691 140.553 191.628 139.916 191.39C138.441 190.834 136.839 190.428 135.142 189.999C133.038 189.466 130.859 188.913 128.75 188.026L128.54 187.927C126.992 187.187 125.801 186.879 124.995 187.018Z" fill="#231F20"/>
<path opacity="0.6" d="M148.084 176.158C149.385 172.946 145.713 171.857 145.254 171.683C143.662 171.08 142.138 176.916 143.03 177.291C143.357 177.427 146.891 179.101 148.084 176.158Z" fill="#EEF0E3"/>
<path opacity="0.6" d="M133.208 154.345C135.126 151.384 132.404 148.822 132.115 148.475C131.11 147.278 127.9 152.601 128.447 153.3C128.65 153.562 131.742 156.607 133.208 154.345Z" fill="#EEF0E3"/>
<path opacity="0.6" d="M143.124 185.294C144.069 181.994 140.667 181.181 140.237 181.042C138.754 180.559 137.796 186.49 138.628 186.799C138.937 186.91 142.258 188.317 143.124 185.294Z" fill="#EEF0E3"/>
<path opacity="0.6" d="M139.88 194.945C140.505 191.986 137.463 191.484 137.078 191.388C135.743 191.056 135.273 196.33 136.024 196.547C136.305 196.628 139.31 197.658 139.88 194.945Z" fill="#EEF0E3"/>
<path opacity="0.6" d="M144.469 153.057C143.913 152.314 140.548 153.629 139.403 154.197C138.817 154.488 138.228 154.809 137.724 155.232C137.572 155.36 137.172 155.624 137.118 155.807C136.802 156.884 139.073 156.217 139.473 156.158C140.633 155.986 141.791 155.815 142.95 155.644C143.724 155.529 144.351 155.361 144.542 154.543C144.71 153.823 144.68 153.339 144.469 153.057Z" fill="#EEF0E3"/>
<defs>
<linearGradient id="paint0_linear_307_3868" x1="198.297" y1="104.599" x2="189.563" y2="146.779" gradientUnits="userSpaceOnUse">
<stop stop-color="#D0D9DB"/>
<stop offset="1" stop-color="#B8C1C3"/>
</linearGradient>
<linearGradient id="paint1_linear_307_3868" x1="39.4821" y1="72.4866" x2="34.484" y2="136.724" gradientUnits="userSpaceOnUse">
<stop stop-color="#D0D9DB"/>
<stop offset="1" stop-color="#99A1A3"/>
</linearGradient>
<linearGradient id="paint2_linear_307_3868" x1="139.215" y1="138" x2="118.025" y2="241.79" gradientUnits="userSpaceOnUse">
<stop stop-color="#303232"/>
<stop offset="1" stop-color="#191A1A"/>
</linearGradient>
<linearGradient id="paint3_linear_307_3868" x1="130.83" y1="161.395" x2="134.654" y2="142.663" gradientUnits="userSpaceOnUse">
<stop stop-color="#79848A"/>
<stop offset="1" stop-color="#28292E"/>
</linearGradient>
<linearGradient id="paint4_linear_307_3868" x1="130.078" y1="159.071" x2="134.691" y2="146.336" gradientUnits="userSpaceOnUse">
<stop stop-color="#79848A"/>
<stop offset="1" stop-color="#0E0C11"/>
</linearGradient>
<radialGradient id="paint5_radial_307_3868" cx="0" cy="0" r="1" gradientUnits="userSpaceOnUse" gradientTransform="translate(79.7556 23.0166) rotate(11.5391) scale(214.314 214.314)">
<stop stop-color="#D0D9DB"/>
<stop offset="1" stop-color="#B8C1C3"/>
</radialGradient>
<radialGradient id="paint6_radial_307_3868" cx="0" cy="0" r="1" gradientUnits="userSpaceOnUse" gradientTransform="translate(144.705 175.407) rotate(11.5391) scale(25.1685 25.1685)">
<stop stop-color="#D0D9DB"/>
<stop offset="1" stop-color="#B8C1C3"/>
</radialGradient>
<linearGradient id="paint7_linear_307_3868" x1="163.31" y1="88.3475" x2="152.912" y2="139.276" gradientUnits="userSpaceOnUse">
<stop stop-color="#F70000"/>
<stop offset="1" stop-color="#B00000"/>
</linearGradient>
<linearGradient id="paint8_linear_307_3868" x1="155.376" y1="126.582" x2="159.083" y2="108.422" gradientUnits="userSpaceOnUse">
<stop stop-color="#FA3B25"/>
<stop offset="0.1214" stop-color="#FA402B"/>
<stop offset="0.2781" stop-color="#FB503B"/>
<stop offset="0.4542" stop-color="#FB6955"/>
<stop offset="0.6444" stop-color="#FD8C7A"/>
<stop offset="0.8438" stop-color="#FEB8A9"/>
<stop offset="0.9659" stop-color="#FFD7CA"/>
</linearGradient>
</defs>
</svg>
