<svg width="226" height="201" viewBox="0 0 226 201" fill="none" xmlns="http://www.w3.org/2000/svg">
<path d="M198.001 57.1639L135.864 38.0952C135.081 41.3592 132.208 43.3566 129.318 42.7423L129.015 44.0061C128.95 44.2797 128.698 44.4429 128.456 44.3686C128.214 44.2944 128.07 44.0097 128.135 43.7361L128.439 42.4723C125.671 41.3505 124.084 37.9842 124.867 34.7202L27.5379 4.85156C26.7143 8.28469 23.5824 10.315 20.5471 9.38351L3.68786 79.6633C6.7232 80.5948 8.51826 84.1371 7.6947 87.5702L105.024 117.439C105.807 114.175 108.68 112.178 111.57 112.792L111.873 111.528C111.939 111.254 112.19 111.091 112.432 111.166C112.674 111.24 112.818 111.524 112.753 111.798L112.45 113.062C115.217 114.184 116.804 117.55 116.021 120.814L178.158 139.883C178.981 136.449 182.113 134.419 185.149 135.351L202.008 65.0709C198.972 64.1394 197.177 60.5971 198.001 57.1639ZM113.355 109.285C113.289 109.564 113.038 109.722 112.796 109.648C112.554 109.574 112.409 109.294 112.476 109.015L113.077 106.508C113.144 106.229 113.395 106.071 113.636 106.145C113.878 106.219 114.024 106.499 113.957 106.778L113.355 109.285ZM114.56 104.265C114.494 104.539 114.242 104.702 114.001 104.628C113.759 104.553 113.614 104.269 113.68 103.995L114.283 101.482C114.348 101.209 114.6 101.046 114.842 101.12C115.084 101.194 115.228 101.479 115.163 101.752L114.56 104.265ZM115.764 99.2447C115.698 99.5184 115.447 99.6815 115.205 99.6073C114.963 99.533 114.819 99.2484 114.884 98.9747L115.487 96.4621C115.553 96.1884 115.804 96.0253 116.046 96.0995C116.288 96.1738 116.432 96.4584 116.367 96.7321L115.764 99.2447ZM116.968 94.2244C116.903 94.498 116.651 94.6612 116.409 94.5869C116.167 94.5127 116.023 94.228 116.089 93.9544L116.691 91.4417C116.757 91.1681 117.009 91.0049 117.251 91.0792C117.493 91.1534 117.637 91.4381 117.571 91.7117L116.968 94.2244ZM118.174 89.1991C118.107 89.4777 117.857 89.6359 117.615 89.5616C117.373 89.4874 117.227 89.2077 117.294 88.9291L117.896 86.4214C117.963 86.1428 118.213 85.9846 118.455 86.0588C118.697 86.1331 118.842 86.4128 118.775 86.6914L118.174 89.1991ZM119.378 84.1787C119.313 84.4524 119.061 84.6155 118.819 84.5413C118.577 84.467 118.433 84.1824 118.498 83.9087L119.101 81.3961C119.167 81.1224 119.418 80.9593 119.66 81.0335C119.902 81.1078 120.047 81.3924 119.981 81.6661L119.378 84.1787ZM120.583 79.1584C120.517 79.432 120.265 79.5952 120.023 79.5209C119.781 79.4467 119.637 79.162 119.703 78.8884L120.305 76.3757C120.371 76.1021 120.623 75.9389 120.865 76.0132C121.107 76.0874 121.251 76.3721 121.185 76.6457L120.583 79.1584ZM121.787 74.1381C121.721 74.4117 121.47 74.5749 121.228 74.5006C120.986 74.4264 120.841 74.1417 120.907 73.8681L121.51 71.3554C121.575 71.0817 121.827 70.9186 122.069 70.9928C122.311 71.0671 122.455 71.3517 122.39 71.6254L121.787 74.1381ZM122.992 69.1127C122.926 69.3914 122.675 69.5495 122.433 69.4753C122.191 69.4011 122.046 69.1214 122.113 68.8427L122.714 66.3351C122.781 66.0564 123.031 65.8983 123.273 65.9725C123.515 66.0468 123.661 66.3264 123.594 66.6051L122.992 69.1127ZM124.197 64.0924C124.131 64.3661 123.879 64.5292 123.637 64.455C123.395 64.3807 123.251 64.0961 123.317 63.8224L123.92 61.3097C123.985 61.0361 124.237 60.8729 124.479 60.9472C124.721 61.0214 124.865 61.3061 124.799 61.5797L124.197 64.0924ZM125.401 59.0721C125.335 59.3457 125.084 59.5089 124.842 59.4346C124.6 59.3604 124.456 59.0757 124.521 58.8021L125.124 56.2894C125.19 56.0157 125.441 55.8526 125.683 55.9268C125.925 56.0011 126.069 56.2857 126.004 56.5594L125.401 59.0721ZM126.605 54.0517C126.54 54.3254 126.288 54.4885 126.046 54.4143C125.804 54.34 125.66 54.0554 125.726 53.7817L126.328 51.2691C126.394 50.9954 126.646 50.8323 126.888 50.9065C127.129 50.9808 127.274 51.2654 127.208 51.5391L126.605 54.0517ZM127.811 49.0264C127.744 49.305 127.494 49.4632 127.252 49.389C127.01 49.3147 126.864 49.035 126.931 48.7564L127.533 46.2487C127.599 45.9701 127.85 45.8119 128.092 45.8862C128.334 45.9604 128.479 46.2401 128.412 46.5187L127.811 49.0264Z" fill="#6B4045"/>
<path d="M198.682 61.0047C198.024 60.4983 197.473 59.843 197.059 59.0858C196.651 58.3462 196.375 57.5083 196.259 56.634C196.148 55.7773 196.187 54.8865 196.399 54.0008L134.263 34.9321C133.48 38.1961 130.606 40.1935 127.717 39.5792L127.414 40.843C127.348 41.1166 127.096 41.2798 126.854 41.2055C126.612 41.1313 126.468 40.8466 126.534 40.573L126.837 39.3092C126.815 39.3024 126.799 39.2921 126.777 39.2853C125.945 38.9338 125.227 38.3824 124.646 37.6914C124.116 37.0691 123.7 36.3219 123.432 35.5079C123.146 34.651 123.017 33.7139 123.079 32.7661C123.109 32.364 123.169 31.9602 123.265 31.5571L25.9363 1.68847C25.657 2.85275 25.1085 3.85963 24.3926 4.63886C23.715 5.37643 22.8817 5.91664 21.9766 6.2051C21.0159 6.50856 19.9749 6.53633 18.9455 6.22043L2.08629 76.5002C2.71976 76.6946 3.29818 77.0003 3.81075 77.4033C4.46856 77.9097 5.0198 78.565 5.43324 79.3222C5.84146 80.0618 6.11427 80.8934 6.23361 81.774C6.34573 82.6257 6.30559 83.5215 6.09314 84.4071L103.422 114.276C103.465 114.097 103.517 113.92 103.572 113.75C104.517 110.814 107.218 109.063 109.936 109.624C109.946 109.622 109.959 109.626 109.968 109.629L110.271 108.365C110.337 108.091 110.589 107.928 110.831 108.002C111.073 108.077 111.217 108.361 111.151 108.635L110.848 109.899C111.46 110.145 112.012 110.502 112.493 110.938C113.101 111.493 113.601 112.186 113.959 112.958C114.323 113.743 114.549 114.613 114.602 115.511C114.651 116.215 114.592 116.934 114.42 117.651L176.556 136.72C176.836 135.555 177.383 134.553 178.1 133.769C178.777 133.032 179.611 132.491 180.516 132.203C181.477 131.899 182.518 131.872 183.547 132.188L200.406 61.9078C199.773 61.7134 199.194 61.4077 198.682 61.0047ZM125.329 45.5933L125.931 43.0856C125.998 42.807 126.248 42.6488 126.49 42.7231C126.732 42.7973 126.878 43.077 126.811 43.3556L126.209 45.8633C126.142 46.1419 125.892 46.3001 125.65 46.2259C125.571 46.2016 125.502 46.1537 125.447 46.0887C125.334 45.9686 125.285 45.7774 125.329 45.5933ZM124.727 48.106C124.792 47.8323 125.044 47.6692 125.286 47.7434C125.528 47.8177 125.672 48.1023 125.607 48.376L125.004 50.8886C124.938 51.1623 124.686 51.3254 124.445 51.2512C124.203 51.1769 124.058 50.8923 124.124 50.6186L124.727 48.106ZM123.24 56.2715C122.998 56.1973 122.854 55.9126 122.92 55.639L123.522 53.1263C123.588 52.8527 123.84 52.6895 124.082 52.7638C124.13 52.7786 124.172 52.8021 124.212 52.8305C124.373 52.9492 124.455 53.1774 124.402 53.3963L123.799 55.909C123.776 56.0085 123.728 56.0899 123.665 56.1561L123.658 56.1647C123.615 56.205 123.559 56.2412 123.507 56.2625L123.497 56.2648C123.415 56.293 123.328 56.2985 123.24 56.2715ZM122.318 58.1467C122.384 57.873 122.635 57.7099 122.877 57.7841C123.119 57.8584 123.264 58.143 123.198 58.4167L122.595 60.9293C122.529 61.203 122.278 61.3661 122.036 61.2919C121.794 61.2176 121.65 60.933 121.715 60.6593L122.318 58.1467ZM121.113 63.172C121.179 62.8933 121.43 62.7352 121.672 62.8094C121.835 62.8594 121.956 63.0034 121.994 63.1806C122.012 63.2611 122.014 63.3524 121.992 63.442L121.391 65.9497C121.324 66.2283 121.073 66.3865 120.832 66.3122C120.59 66.238 120.444 65.9583 120.511 65.6797L121.113 63.172ZM119.305 70.705L119.908 68.1923C119.974 67.9187 120.226 67.7555 120.468 67.8298C120.709 67.904 120.854 68.1887 120.788 68.4623L120.185 70.975C120.12 71.2486 119.868 71.4118 119.626 71.3375C119.437 71.2795 119.303 71.0889 119.293 70.8773C119.287 70.8221 119.291 70.7647 119.305 70.705ZM118.704 73.2127C118.77 72.939 119.021 72.7759 119.263 72.8501C119.505 72.9243 119.649 73.209 119.584 73.4827L118.981 75.9953C118.915 76.269 118.664 76.4321 118.422 76.3579C118.18 76.2836 118.036 75.999 118.101 75.7253L118.704 73.2127ZM116.897 80.7457L117.5 78.233C117.565 77.9593 117.817 77.7962 118.059 77.8704C118.301 77.9447 118.445 78.2293 118.379 78.503L117.777 81.0156C117.711 81.2893 117.459 81.4525 117.217 81.3782C117.143 81.3553 117.081 81.3151 117.029 81.2564C116.908 81.1336 116.852 80.9347 116.897 80.7457ZM116.294 83.2583C116.361 82.9797 116.611 82.8215 116.853 82.8957C117.095 82.97 117.241 83.2497 117.174 83.5283L116.572 86.036C116.506 86.3146 116.255 86.4728 116.013 86.3985C115.771 86.3243 115.626 86.0446 115.693 85.766L116.294 83.2583ZM115.09 88.2787C115.155 88.005 115.407 87.8418 115.649 87.9161C115.702 87.9323 115.752 87.9584 115.795 87.9982C115.945 88.1191 116.021 88.3347 115.97 88.5486L115.367 91.0613C115.301 91.335 115.05 91.4981 114.808 91.4239C114.566 91.3496 114.421 91.065 114.487 90.7913L115.09 88.2787ZM113.885 93.299C113.951 93.0253 114.203 92.8622 114.445 92.9364C114.687 93.0107 114.831 93.2953 114.765 93.569L114.163 96.0816C114.097 96.3553 113.845 96.5185 113.603 96.4442C113.361 96.37 113.217 96.0853 113.283 95.8116L113.885 93.299ZM112.681 98.3193C112.747 98.0457 112.998 97.8825 113.24 97.9568C113.412 98.0094 113.534 98.1698 113.565 98.3555C113.58 98.4297 113.58 98.5097 113.561 98.5893L112.958 101.102C112.893 101.376 112.641 101.539 112.399 101.465C112.157 101.39 112.013 101.106 112.078 100.832L112.681 98.3193ZM111.195 106.485C111.01 106.428 110.886 106.257 110.864 106.052C110.855 105.991 110.857 105.922 110.874 105.852L111.476 103.345C111.542 103.066 111.793 102.908 112.035 102.982C112.277 103.056 112.422 103.336 112.355 103.615L111.754 106.122C111.687 106.401 111.437 106.559 111.195 106.485Z" fill="#F5B41B"/>
<path d="M31.0876 3.26932L17.5479 12.0468L18.3917 8.52908L21.9766 6.2051L24.3926 4.63886L27.9775 2.31487L31.0876 3.26932Z" fill="#EDA71D"/>
<path d="M37.3078 5.17821L15.8601 19.0822L16.704 15.5645L34.1977 4.22377L37.3078 5.17821Z" fill="#EDA71D"/>
<path d="M43.5281 7.08711L14.1724 26.1177L15.0163 22.6L40.418 6.13266L43.5281 7.08711Z" fill="#EDA71D"/>
<path d="M49.7528 8.99735L12.4835 33.1581L13.3274 29.6404L46.6426 8.04291L49.7528 8.99735Z" fill="#EDA71D"/>
<path d="M55.973 10.9062L10.7958 40.1935L11.6397 36.6758L52.8629 9.9518L55.973 10.9062Z" fill="#EDA71D"/>
<path d="M62.1933 12.8151L9.10809 47.229L9.95195 43.7113L59.0831 11.8607L62.1933 12.8151Z" fill="#EDA71D"/>
<path d="M68.4135 14.724L7.42038 54.2644L8.26424 50.7467L65.3034 13.7696L68.4135 14.724Z" fill="#EDA71D"/>
<path d="M74.6338 16.6329L5.73147 61.3048L6.57652 57.7821L71.5236 15.6785L74.6338 16.6329Z" fill="#EDA71D"/>
<path d="M80.8584 18.5432L4.04376 68.3403L4.88881 64.8176L77.7483 17.5887L80.8584 18.5432Z" fill="#EDA71D"/>
<path d="M87.0787 20.4521L2.35604 75.3757L3.1999 71.858L83.9685 19.4976L87.0787 20.4521Z" fill="#EDA71D"/>
<path d="M93.2956 22.3608L5.42992 79.322C5.01648 78.5648 4.46524 77.9095 3.80743 77.4032L90.1855 21.4064L93.2956 22.3608Z" fill="#EDA71D"/>
<path d="M99.5169 24.2696L6.53959 84.5446L6.09089 84.4069C6.30335 83.5213 6.34349 82.6255 6.23137 81.7738L96.4068 23.3152L99.5169 24.2696Z" fill="#EDA71D"/>
<path d="M105.744 26.1813L12.7626 86.455L9.65683 85.5019L102.63 25.2255L105.744 26.1813Z" fill="#EDA71D"/>
<path d="M111.963 28.0886L18.9857 88.3636L15.8756 87.4091L108.853 27.1341L111.963 28.0886Z" fill="#EDA71D"/>
<path d="M118.182 29.9978L25.2045 90.2727L22.0943 89.3183L115.072 29.0433L118.182 29.9978Z" fill="#EDA71D"/>
<path d="M123.079 32.7662L31.4271 92.1819L28.317 91.2275L121.294 30.9525L123.265 31.5573C123.168 31.9603 123.109 32.3642 123.079 32.7662Z" fill="#EDA71D"/>
<path d="M124.641 37.6905L37.6466 94.0911L34.532 93.1353L123.427 35.507C123.694 36.321 124.11 37.0682 124.641 37.6905Z" fill="#EDA71D"/>
<path d="M136.85 35.7257L43.8729 96.0006L40.7584 95.0448L126.777 39.285C126.799 39.2918 126.816 39.3022 126.838 39.3089L126.535 40.5727C126.469 40.8464 126.613 41.131 126.855 41.2053C127.097 41.2795 127.349 41.1164 127.414 40.8427L127.718 39.5789C130.607 40.1932 133.481 38.1958 134.264 34.9319L136.85 35.7257Z" fill="#EDA71D"/>
<path d="M125.441 49.0622L125.605 48.3756C125.671 48.102 125.527 47.8173 125.285 47.7431C125.043 47.6688 124.791 47.832 124.725 48.1056L124.322 49.7874L50.0912 97.9095L46.981 96.955L125.446 46.0884C125.501 46.1534 125.57 46.2012 125.649 46.2255C125.891 46.2998 126.141 46.1416 126.208 45.863L126.284 45.5445L139.958 36.68L143.069 37.6345L125.441 49.0622Z" fill="#EDA71D"/>
<path d="M123.238 56.271C123.326 56.298 123.413 56.2924 123.495 56.2643L56.3109 99.8181L53.2008 98.8637L123.478 53.3049L122.918 55.6384C122.852 55.9121 122.996 56.1967 123.238 56.271Z" fill="#EDA71D"/>
<path d="M123.801 55.9096L124.404 53.3969C124.457 53.178 124.374 52.9498 124.214 52.8311L146.182 38.5899L149.292 39.5443L123.667 56.1567C123.73 56.0906 123.778 56.0091 123.801 55.9096Z" fill="#EDA71D"/>
<path d="M155.51 41.4528L121.993 63.1808C121.956 63.0036 121.834 62.8596 121.671 62.8096C121.43 62.7354 121.179 62.8935 121.112 63.1722L120.948 63.8588L62.5326 101.728L59.4225 100.773L121.791 60.3411L121.715 60.6595C121.649 60.9332 121.794 61.2178 122.036 61.2921C122.277 61.3663 122.529 61.2032 122.595 60.9295L122.91 59.616L152.4 40.4984L155.51 41.4528Z" fill="#EDA71D"/>
<path d="M120.376 70.1734L120.786 68.4618C120.852 68.1882 120.708 67.9035 120.466 67.8293C120.224 67.755 119.972 67.9182 119.906 68.1918L119.304 70.7045C119.289 70.7642 119.285 70.8216 119.291 70.8768L68.7513 103.636L65.6412 102.682L158.619 42.4066L161.733 43.3624L120.376 70.1734Z" fill="#EDA71D"/>
<path d="M167.951 45.2712L74.974 105.546L71.8639 104.592L118.412 74.4112L118.097 75.7247C118.032 75.9984 118.176 76.283 118.418 76.3573C118.66 76.4315 118.912 76.2684 118.977 75.9947L119.531 73.6861L164.837 44.3154L167.951 45.2712Z" fill="#EDA71D"/>
<path d="M117.001 84.2445L117.172 83.528C117.239 83.2494 117.094 82.9697 116.852 82.8955C116.61 82.8212 116.36 82.9794 116.293 83.258L115.882 84.9696L81.1966 107.455L78.0865 106.501L117.028 81.2561C117.08 81.3148 117.141 81.355 117.216 81.3779C117.458 81.4522 117.71 81.289 117.775 81.0154L117.844 80.7268L171.064 46.2259L174.174 47.1804L117.001 84.2445Z" fill="#EDA71D"/>
<path d="M180.393 49.0895L87.4154 109.365L84.3053 108.41L115.037 88.4876L114.484 90.7913C114.418 91.065 114.563 91.3496 114.805 91.4239C115.047 91.4981 115.298 91.335 115.364 91.0613L115.967 88.5486C116.018 88.3347 115.942 88.1191 115.792 87.9982L177.283 48.1351L180.393 49.0895Z" fill="#EDA71D"/>
<path d="M186.611 50.9978L113.561 98.3549C113.53 98.1691 113.408 98.0087 113.236 97.9561C112.994 97.8818 112.742 98.045 112.677 98.3186L112.504 99.0401L93.6341 111.273L90.524 110.318L113.348 95.5224L113.278 95.8109C113.213 96.0846 113.357 96.3693 113.599 96.4435C113.841 96.5178 114.092 96.3546 114.158 96.0809L114.466 94.7973L183.501 50.0433L186.611 50.9978Z" fill="#EDA71D"/>
<path d="M111.94 105.356L112.357 103.614C112.424 103.336 112.279 103.056 112.037 102.982C111.795 102.907 111.544 103.066 111.478 103.344L110.876 105.852C110.859 105.922 110.857 105.99 110.866 106.052L99.8651 113.183L96.7506 112.227L189.732 51.9538L192.838 52.9069L111.94 105.356Z" fill="#EDA71D"/>
<path d="M102.97 114.138L103.568 113.75C103.513 113.92 103.462 114.096 103.419 114.276L102.97 114.138Z" fill="#EDA71D"/>
<path d="M109.933 109.625L109.972 109.599L109.965 109.629C109.956 109.627 109.943 109.623 109.933 109.625Z" fill="#EDA71D"/>
<path d="M196.258 56.6333L112.492 110.937C112.011 110.501 111.459 110.144 110.847 109.898L111.093 108.873L195.95 53.8624L196.399 54.0001C196.186 54.8858 196.147 55.7766 196.258 56.6333Z" fill="#EDA71D"/>
<path d="M198.683 61.0048L114.604 115.512C114.55 114.614 114.324 113.743 113.96 112.958L197.061 59.086C197.474 59.8432 198.025 60.4985 198.683 61.0048Z" fill="#EDA71D"/>
<path d="M200.133 63.0322L199.29 66.5499L118.521 118.91L115.411 117.956L200.133 63.0322Z" fill="#EDA71D"/>
<path d="M198.448 70.0676L197.603 73.5903L124.744 120.819L121.634 119.865L198.448 70.0676Z" fill="#EDA71D"/>
<path d="M196.759 77.1027L195.914 80.6254L130.967 122.729L127.856 121.775L196.759 77.1027Z" fill="#EDA71D"/>
<path d="M195.07 84.143L194.226 87.6607L137.187 124.638L134.077 123.683L195.07 84.143Z" fill="#EDA71D"/>
<path d="M193.385 91.1794L192.541 94.6971L143.41 126.548L140.299 125.593L193.385 91.1794Z" fill="#EDA71D"/>
<path d="M191.696 98.2139L190.852 101.732L149.629 128.456L146.518 127.501L191.696 98.2139Z" fill="#EDA71D"/>
<path d="M190.011 105.249L189.167 108.767L155.851 130.365L152.741 129.41L190.011 105.249Z" fill="#EDA71D"/>
<path d="M188.321 112.291L187.477 115.809L162.076 132.276L158.965 131.322L188.321 112.291Z" fill="#EDA71D"/>
<path d="M186.628 119.326L185.784 122.843L168.291 134.184L165.18 133.23L186.628 119.326Z" fill="#EDA71D"/>
<path d="M184.943 126.361L184.099 129.879L174.513 136.093L171.403 135.139L184.943 126.361Z" fill="#EDA71D"/>
<path d="M182.242 61.7507L170.691 58.2061L169.927 61.3924L181.478 64.9371L182.242 61.7507Z" fill="#000200"/>
<path d="M178.719 76.4548L167.168 72.9102L166.51 75.6542L178.06 79.1989L178.719 76.4548Z" fill="#000200"/>
<path d="M176.969 83.7527L165.418 80.208L164.786 82.8441L176.336 86.3887L176.969 83.7527Z" fill="#000200"/>
<path d="M175.23 90.9949L163.68 87.4502L163.047 90.0862L174.598 93.6309L175.23 90.9949Z" fill="#000200"/>
<path d="M171.754 105.48L160.203 101.936L159.571 104.572L171.121 108.116L171.754 105.48Z" fill="#000200"/>
<path d="M170.015 112.722L158.465 109.178L157.832 111.814L169.383 115.358L170.015 112.722Z" fill="#000200"/>
<path d="M175.937 88.0564L164.387 84.5117L164.081 85.7845L175.632 89.3292L175.937 88.0564Z" fill="#000200"/>
<path d="M173.332 98.9197L161.781 95.375L161.476 96.6477L173.027 100.192L173.332 98.9197Z" fill="#000200"/>
<path d="M172.515 102.316L160.965 98.7715L160.551 100.495L172.102 104.04L172.515 102.316Z" fill="#000200"/>
<path d="M169.043 116.8L157.492 113.255L157.079 114.978L168.629 118.523L169.043 116.8Z" fill="#000200"/>
<path d="M170.73 109.755L159.18 106.21L158.861 107.539L170.411 111.084L170.73 109.755Z" fill="#000200"/>
<path d="M168.121 120.619L156.57 117.074L156.252 118.403L167.802 121.948L168.121 120.619Z" fill="#000200"/>
<path d="M174.265 95.0115L162.715 91.4668L162.272 93.3127L173.823 96.8574L174.265 95.0115Z" fill="#000200"/>
<path d="M181.207 66.0711L169.656 62.5264L169.228 64.3121L180.778 67.8568L181.207 66.0711Z" fill="#000200"/>
<path d="M180.289 69.9148L168.738 66.3701L168.416 67.714L179.966 71.2587L180.289 69.9148Z" fill="#000200"/>
<path d="M179.418 73.5349L167.867 69.9902L167.545 71.3341L179.095 74.8788L179.418 73.5349Z" fill="#000200"/>
<path d="M177.73 80.5808L166.18 77.0361L165.763 78.7726L177.314 82.3173L177.73 80.5808Z" fill="#000200"/>
<path d="M219.286 116.341L157.15 97.272C156.367 100.536 153.493 102.533 150.603 101.919L150.3 103.183C150.235 103.456 149.983 103.62 149.741 103.545C149.499 103.471 149.355 103.186 149.421 102.913L149.724 101.649C146.956 100.527 145.369 97.161 146.152 93.897L48.823 64.0283C47.9995 67.4615 44.8676 69.4918 41.8323 68.5603L24.973 138.84C28.0084 139.772 29.8034 143.314 28.9799 146.747L126.309 176.616C127.092 173.352 129.965 171.354 132.855 171.969L133.158 170.705C133.224 170.431 133.475 170.268 133.717 170.342C133.959 170.417 134.104 170.701 134.038 170.975L133.735 172.239C136.502 173.36 138.089 176.727 137.306 179.991L199.443 199.059C200.267 195.626 203.398 193.596 206.434 194.527L223.293 124.248C220.258 123.316 218.463 119.774 219.286 116.341ZM134.641 168.462C134.574 168.741 134.323 168.899 134.081 168.825C133.839 168.75 133.694 168.471 133.761 168.192L134.362 165.684C134.429 165.406 134.68 165.248 134.922 165.322C135.164 165.396 135.309 165.676 135.242 165.954L134.641 168.462ZM135.845 163.442C135.779 163.715 135.528 163.879 135.286 163.804C135.044 163.73 134.899 163.445 134.965 163.172L135.568 160.659C135.634 160.386 135.885 160.222 136.127 160.297C136.369 160.371 136.513 160.656 136.448 160.929L135.845 163.442ZM137.049 158.421C136.984 158.695 136.732 158.858 136.49 158.784C136.248 158.71 136.104 158.425 136.169 158.151L136.772 155.639C136.838 155.365 137.09 155.202 137.331 155.276C137.573 155.351 137.718 155.635 137.652 155.909L137.049 158.421ZM138.254 153.401C138.188 153.675 137.936 153.838 137.694 153.764C137.452 153.689 137.308 153.405 137.374 153.131L137.977 150.618C138.042 150.345 138.294 150.182 138.536 150.256C138.778 150.33 138.922 150.615 138.856 150.888L138.254 153.401ZM139.459 148.376C139.392 148.654 139.142 148.813 138.9 148.738C138.658 148.664 138.512 148.384 138.579 148.106L139.181 145.598C139.248 145.32 139.498 145.161 139.74 145.236C139.982 145.31 140.127 145.59 140.061 145.868L139.459 148.376ZM140.663 143.355C140.598 143.629 140.346 143.792 140.104 143.718C139.862 143.644 139.718 143.359 139.784 143.085L140.386 140.573C140.452 140.299 140.704 140.136 140.946 140.21C141.188 140.285 141.332 140.569 141.266 140.843L140.663 143.355ZM141.868 138.335C141.802 138.609 141.55 138.772 141.308 138.698C141.067 138.623 140.922 138.339 140.988 138.065L141.591 135.552C141.656 135.279 141.908 135.116 142.15 135.19C142.392 135.264 142.536 135.549 142.47 135.822L141.868 138.335ZM143.072 133.315C143.006 133.588 142.755 133.752 142.513 133.677C142.271 133.603 142.127 133.318 142.192 133.045L142.795 130.532C142.861 130.258 143.112 130.095 143.354 130.17C143.596 130.244 143.74 130.528 143.675 130.802L143.072 133.315ZM144.278 128.289C144.211 128.568 143.96 128.726 143.718 128.652C143.476 128.578 143.331 128.298 143.398 128.02L143.999 125.512C144.066 125.233 144.317 125.075 144.559 125.149C144.8 125.224 144.946 125.503 144.879 125.782L144.278 128.289ZM145.482 123.269C145.416 123.543 145.165 123.706 144.923 123.632C144.681 123.557 144.536 123.273 144.602 122.999L145.205 120.487C145.27 120.213 145.522 120.05 145.764 120.124C146.006 120.198 146.15 120.483 146.085 120.756L145.482 123.269ZM146.686 118.249C146.621 118.522 146.369 118.686 146.127 118.611C145.885 118.537 145.741 118.252 145.806 117.979L146.409 115.466C146.475 115.193 146.726 115.029 146.968 115.104C147.21 115.178 147.355 115.463 147.289 115.736L146.686 118.249ZM147.89 113.228C147.825 113.502 147.573 113.665 147.331 113.591C147.089 113.517 146.945 113.232 147.011 112.958L147.613 110.446C147.679 110.172 147.931 110.009 148.173 110.083C148.415 110.158 148.559 110.442 148.493 110.716L147.89 113.228ZM149.096 108.203C149.029 108.482 148.779 108.64 148.537 108.566C148.295 108.491 148.149 108.212 148.216 107.933L148.818 105.425C148.885 105.147 149.135 104.989 149.377 105.063C149.619 105.137 149.764 105.417 149.698 105.695L149.096 108.203Z" fill="#6B4045"/>
<path d="M219.967 120.181C219.309 119.675 218.758 119.02 218.344 118.263C217.936 117.523 217.66 116.685 217.544 115.811C217.433 114.954 217.472 114.063 217.685 113.178L155.548 94.1089C154.765 97.3729 151.891 99.3702 149.002 98.7559L148.699 100.02C148.633 100.293 148.381 100.457 148.139 100.382C147.898 100.308 147.753 100.023 147.819 99.7497L148.122 98.4859C148.1 98.4792 148.084 98.4688 148.062 98.4621C147.23 98.1106 146.512 97.5591 145.931 96.8682C145.401 96.2459 144.985 95.4986 144.717 94.6847C144.432 93.8278 144.302 92.8906 144.364 91.9428C144.395 91.5408 144.454 91.1369 144.55 90.7339L47.2215 60.8652C46.9422 62.0295 46.3936 63.0364 45.6778 63.8156C45.0002 64.5532 44.1669 65.0934 43.2617 65.3819C42.301 65.6853 41.2601 65.7131 40.2307 65.3972L23.3714 135.677C24.0049 135.871 24.5833 136.177 25.0959 136.58C25.7537 137.086 26.305 137.742 26.7184 138.499C27.1266 139.239 27.3994 140.07 27.5188 140.951C27.6309 141.802 27.5907 142.698 27.3783 143.584L124.707 173.453C124.75 173.273 124.802 173.097 124.857 172.927C125.802 169.991 128.503 168.239 131.221 168.801C131.231 168.799 131.245 168.803 131.253 168.806L131.556 167.542C131.622 167.268 131.874 167.105 132.116 167.179C132.358 167.253 132.502 167.538 132.436 167.812L132.133 169.076C132.745 169.322 133.297 169.678 133.778 170.114C134.386 170.67 134.886 171.363 135.244 172.135C135.608 172.92 135.834 173.79 135.887 174.688C135.936 175.392 135.877 176.111 135.705 176.828L197.841 195.896C198.121 194.732 198.668 193.73 199.385 192.946C200.063 192.208 200.896 191.668 201.801 191.38C202.762 191.076 203.803 191.048 204.832 191.364L221.691 121.085C221.058 120.89 220.48 120.584 219.967 120.181ZM146.615 104.77L147.216 102.262C147.283 101.984 147.534 101.826 147.775 101.9C148.017 101.974 148.163 102.254 148.096 102.532L147.494 105.04C147.428 105.319 147.177 105.477 146.935 105.403C146.856 105.378 146.787 105.331 146.732 105.265C146.619 105.145 146.57 104.954 146.615 104.77ZM146.012 107.283C146.078 107.009 146.329 106.846 146.571 106.92C146.813 106.994 146.957 107.279 146.892 107.553L146.289 110.065C146.223 110.339 145.972 110.502 145.73 110.428C145.488 110.354 145.343 110.069 145.409 109.795L146.012 107.283ZM144.525 115.448C144.283 115.374 144.139 115.089 144.205 114.816L144.808 112.303C144.873 112.029 145.125 111.866 145.367 111.941C145.415 111.955 145.457 111.979 145.497 112.007C145.658 112.126 145.74 112.354 145.687 112.573L145.085 115.086C145.061 115.185 145.013 115.267 144.95 115.333L144.943 115.341C144.9 115.382 144.844 115.418 144.792 115.439L144.782 115.442C144.7 115.47 144.613 115.475 144.525 115.448ZM143.603 117.323C143.669 117.05 143.921 116.887 144.162 116.961C144.404 117.035 144.549 117.32 144.483 117.593L143.88 120.106C143.815 120.38 143.563 120.543 143.321 120.469C143.079 120.394 142.935 120.11 143 119.836L143.603 117.323ZM142.398 122.349C142.465 122.07 142.715 121.912 142.957 121.986C143.12 122.036 143.241 122.18 143.279 122.357C143.297 122.438 143.299 122.529 143.278 122.619L142.676 125.126C142.609 125.405 142.359 125.563 142.117 125.489C141.875 125.415 141.729 125.135 141.796 124.856L142.398 122.349ZM140.591 129.882L141.193 127.369C141.259 127.095 141.511 126.932 141.753 127.007C141.995 127.081 142.139 127.365 142.073 127.639L141.47 130.152C141.405 130.425 141.153 130.589 140.911 130.514C140.722 130.456 140.588 130.266 140.578 130.054C140.572 129.999 140.576 129.941 140.591 129.882ZM139.989 132.389C140.055 132.116 140.306 131.953 140.548 132.027C140.79 132.101 140.935 132.386 140.869 132.659L140.266 135.172C140.2 135.446 139.949 135.609 139.707 135.535C139.465 135.46 139.321 135.176 139.386 134.902L139.989 132.389ZM138.182 139.922L138.785 137.41C138.85 137.136 139.102 136.973 139.344 137.047C139.586 137.121 139.73 137.406 139.665 137.68L139.062 140.192C138.996 140.466 138.745 140.629 138.503 140.555C138.428 140.532 138.367 140.492 138.315 140.433C138.193 140.31 138.137 140.111 138.182 139.922ZM137.579 142.435C137.646 142.156 137.897 141.998 138.139 142.073C138.38 142.147 138.526 142.426 138.459 142.705L137.858 145.213C137.791 145.491 137.54 145.65 137.298 145.575C137.056 145.501 136.911 145.221 136.978 144.943L137.579 142.435ZM136.375 147.455C136.441 147.182 136.692 147.019 136.934 147.093C136.987 147.109 137.037 147.135 137.08 147.175C137.23 147.296 137.306 147.511 137.255 147.725L136.652 150.238C136.586 150.512 136.335 150.675 136.093 150.601C135.851 150.526 135.707 150.242 135.772 149.968L136.375 147.455ZM135.171 152.476C135.236 152.202 135.488 152.039 135.73 152.113C135.972 152.187 136.116 152.472 136.05 152.746L135.448 155.258C135.382 155.532 135.13 155.695 134.888 155.621C134.646 155.547 134.502 155.262 134.568 154.988L135.171 152.476ZM133.966 157.496C134.032 157.222 134.284 157.059 134.526 157.134C134.697 157.186 134.819 157.347 134.85 157.532C134.866 157.606 134.865 157.686 134.846 157.766L134.243 160.279C134.178 160.552 133.926 160.716 133.684 160.641C133.442 160.567 133.298 160.282 133.364 160.009L133.966 157.496ZM132.48 165.662C132.295 165.605 132.171 165.433 132.149 165.229C132.14 165.167 132.143 165.099 132.159 165.029L132.761 162.521C132.828 162.243 133.078 162.085 133.32 162.159C133.562 162.233 133.707 162.513 133.641 162.791L133.039 165.299C132.972 165.578 132.722 165.736 132.48 165.662Z" fill="#F5B41B"/>
<path d="M52.3728 62.4461L38.833 71.2236L39.6769 67.7058L43.2617 65.3819L45.6778 63.8156L49.2626 61.4916L52.3728 62.4461Z" fill="#8F6511"/>
<path d="M58.593 64.355L37.1453 78.259L37.9892 74.7413L55.4829 63.4005L58.593 64.355Z" fill="#8F6511"/>
<path d="M64.8133 66.2639L35.4576 85.2944L36.3014 81.7767L61.7031 65.3094L64.8133 66.2639Z" fill="#8F6511"/>
<path d="M71.0379 68.1741L33.7687 92.3349L34.6125 88.8171L67.9278 67.2197L71.0379 68.1741Z" fill="#8F6511"/>
<path d="M77.2582 70.083L32.081 99.3703L32.9248 95.8526L74.148 69.1286L77.2582 70.083Z" fill="#8F6511"/>
<path d="M83.4784 71.9919L30.3932 106.406L31.2371 102.888L80.3683 71.0375L83.4784 71.9919Z" fill="#8F6511"/>
<path d="M89.6987 73.9008L28.7055 113.441L29.5494 109.923L86.5885 72.9464L89.6987 73.9008Z" fill="#8F6511"/>
<path d="M95.9189 75.8097L27.0166 120.482L27.8617 116.959L92.8088 74.8552L95.9189 75.8097Z" fill="#8F6511"/>
<path d="M102.144 77.7199L25.3289 127.517L26.174 123.994L99.0334 76.7655L102.144 77.7199Z" fill="#8F6511"/>
<path d="M108.364 79.6288L23.6412 134.552L24.4851 131.035L105.254 78.6744L108.364 79.6288Z" fill="#8F6511"/>
<path d="M114.585 81.5376L26.719 138.499C26.3055 137.742 25.7543 137.086 25.0965 136.58L111.475 80.5831L114.585 81.5376Z" fill="#8F6511"/>
<path d="M120.802 83.4464L27.8247 143.721L27.376 143.584C27.5885 142.698 27.6286 141.802 27.5165 140.951L117.692 82.492L120.802 83.4464Z" fill="#8F6511"/>
<path d="M127.033 85.3571L34.0516 145.631L30.9459 144.678L123.919 84.4013L127.033 85.3571Z" fill="#8F6511"/>
<path d="M133.248 87.2653L40.2709 147.54L37.1607 146.586L130.138 86.3109L133.248 87.2653Z" fill="#8F6511"/>
<path d="M139.467 89.1745L46.4896 149.449L43.3795 148.495L136.357 88.2201L139.467 89.1745Z" fill="#8F6511"/>
<path d="M144.364 91.9429L52.7123 151.359L49.6021 150.404L142.579 90.1292L144.55 90.734C144.454 91.1371 144.394 91.5409 144.364 91.9429Z" fill="#8F6511"/>
<path d="M145.93 96.8673L58.9356 153.268L55.8211 152.312L144.716 94.6838C144.983 95.4977 145.399 96.245 145.93 96.8673Z" fill="#8F6511"/>
<path d="M158.135 94.9024L65.1581 155.177L62.0435 154.222L148.062 98.4618C148.084 98.4685 148.101 98.4789 148.123 98.4857L147.82 99.7495C147.754 100.023 147.898 100.308 148.14 100.382C148.382 100.456 148.634 100.293 148.7 100.019L149.003 98.7557C151.892 99.37 154.766 97.3726 155.549 94.1086L158.135 94.9024Z" fill="#8F6511"/>
<path d="M146.73 108.239L146.894 107.552C146.96 107.279 146.816 106.994 146.574 106.92C146.332 106.846 146.08 107.009 146.015 107.282L145.611 108.964L71.3802 157.086L68.2701 156.132L146.735 105.265C146.79 105.33 146.859 105.378 146.938 105.402C147.18 105.477 147.43 105.318 147.497 105.04L147.573 104.721L161.247 95.8568L164.358 96.8112L146.73 108.239Z" fill="#8F6511"/>
<path d="M144.524 115.448C144.612 115.475 144.698 115.469 144.78 115.441L77.5961 158.995L74.4859 158.04L144.763 112.482L144.203 114.815C144.137 115.089 144.282 115.373 144.524 115.448Z" fill="#8F6511"/>
<path d="M145.087 115.085L145.689 112.573C145.742 112.354 145.66 112.126 145.499 112.007L167.467 97.7657L170.577 98.7201L144.952 115.332C145.015 115.266 145.063 115.185 145.087 115.085Z" fill="#8F6511"/>
<path d="M176.799 100.63L143.282 122.358C143.245 122.18 143.123 122.036 142.961 121.986C142.719 121.912 142.468 122.07 142.401 122.349L142.237 123.036L83.8216 160.905L80.7115 159.95L143.08 119.518L143.004 119.836C142.938 120.11 143.083 120.395 143.325 120.469C143.567 120.543 143.818 120.38 143.884 120.106L144.199 118.793L173.689 99.6751L176.799 100.63Z" fill="#8F6511"/>
<path d="M141.661 129.35L142.071 127.639C142.137 127.365 141.993 127.08 141.751 127.006C141.509 126.932 141.257 127.095 141.192 127.369L140.589 129.881C140.574 129.941 140.57 129.998 140.576 130.054L90.0365 162.813L86.9264 161.858L179.904 101.583L183.018 102.539L141.661 129.35Z" fill="#8F6511"/>
<path d="M189.24 104.448L96.263 164.723L93.1529 163.768L139.702 133.588L139.386 134.901C139.321 135.175 139.465 135.46 139.707 135.534C139.949 135.608 140.201 135.445 140.266 135.171L140.82 132.863L186.126 103.492L189.24 104.448Z" fill="#8F6511"/>
<path d="M138.286 143.421L138.458 142.705C138.524 142.426 138.379 142.146 138.137 142.072C137.895 141.998 137.645 142.156 137.578 142.435L137.167 144.146L102.482 166.632L99.3717 165.678L138.313 140.433C138.365 140.492 138.426 140.532 138.501 140.555C138.743 140.629 138.995 140.466 139.06 140.192L139.13 139.904L192.349 105.403L195.459 106.357L138.286 143.421Z" fill="#8F6511"/>
<path d="M201.682 108.266L108.704 168.541L105.594 167.587L136.326 147.664L135.773 149.968C135.708 150.242 135.852 150.526 136.094 150.601C136.336 150.675 136.587 150.512 136.653 150.238L137.256 147.725C137.307 147.511 137.231 147.296 137.081 147.175L198.572 107.312L201.682 108.266Z" fill="#8F6511"/>
<path d="M207.897 110.175L134.846 157.532C134.815 157.346 134.693 157.185 134.521 157.133C134.279 157.059 134.028 157.222 133.962 157.495L133.789 158.217L114.919 170.449L111.809 169.495L134.633 154.699L134.563 154.988C134.498 155.261 134.642 155.546 134.884 155.62C135.126 155.695 135.378 155.531 135.443 155.258L135.751 153.974L204.787 109.22L207.897 110.175Z" fill="#8F6511"/>
<path d="M133.225 164.532L133.642 162.791C133.709 162.512 133.564 162.233 133.322 162.158C133.08 162.084 132.83 162.242 132.763 162.521L132.161 165.029C132.144 165.098 132.142 165.167 132.151 165.229L121.15 172.36L118.036 171.404L211.017 111.131L214.123 112.084L133.225 164.532Z" fill="#8F6511"/>
<path d="M124.255 173.315L124.854 172.927C124.799 173.097 124.747 173.273 124.704 173.452L124.255 173.315Z" fill="#8F6511"/>
<path d="M131.218 168.801L131.257 168.775L131.25 168.805C131.241 168.802 131.228 168.798 131.218 168.801Z" fill="#8F6511"/>
<path d="M217.543 115.81L133.777 170.114C133.296 169.678 132.744 169.321 132.132 169.075L132.378 168.05L217.235 113.039L217.684 113.177C217.471 114.063 217.432 114.953 217.543 115.81Z" fill="#8F6511"/>
<path d="M219.968 120.181L135.889 174.687C135.835 173.789 135.609 172.919 135.245 172.134L218.346 118.262C218.759 119.019 219.311 119.674 219.968 120.181Z" fill="#8F6511"/>
<path d="M221.419 122.209L220.575 125.727L139.806 178.087L136.696 177.133L221.419 122.209Z" fill="#8F6511"/>
<path d="M219.733 129.243L218.888 132.766L146.029 179.995L142.919 179.04L219.733 129.243Z" fill="#8F6511"/>
<path d="M218.044 136.278L217.199 139.801L152.252 181.905L149.142 180.95L218.044 136.278Z" fill="#8F6511"/>
<path d="M216.355 143.32L215.511 146.837L158.472 183.815L155.362 182.86L216.355 143.32Z" fill="#8F6511"/>
<path d="M214.67 150.356L213.826 153.874L164.695 185.724L161.585 184.77L214.67 150.356Z" fill="#8F6511"/>
<path d="M212.981 157.391L212.137 160.908L170.914 187.632L167.804 186.678L212.981 157.391Z" fill="#8F6511"/>
<path d="M211.296 164.425L210.452 167.943L177.137 189.54L174.026 188.586L211.296 164.425Z" fill="#8F6511"/>
<path d="M209.606 171.468L208.762 174.986L183.361 191.453L180.251 190.499L209.606 171.468Z" fill="#8F6511"/>
<path d="M207.917 178.502L207.073 182.02L189.58 193.361L186.47 192.406L207.917 178.502Z" fill="#8F6511"/>
<path d="M206.232 185.538L205.388 189.056L195.803 195.27L192.692 194.315L206.232 185.538Z" fill="#8F6511"/>
<path d="M203.527 120.927L191.977 117.382L191.212 120.568L202.763 124.113L203.527 120.927Z" fill="#000200"/>
<path d="M200.004 135.632L188.453 132.087L187.795 134.831L199.345 138.376L200.004 135.632Z" fill="#000200"/>
<path d="M198.254 142.928L186.703 139.384L186.071 142.02L197.621 145.565L198.254 142.928Z" fill="#000200"/>
<path d="M196.515 150.172L184.965 146.627L184.332 149.263L195.883 152.808L196.515 150.172Z" fill="#000200"/>
<path d="M193.039 164.656L181.488 161.111L180.856 163.747L192.406 167.292L193.039 164.656Z" fill="#000200"/>
<path d="M191.301 171.899L179.75 168.354L179.118 170.991L190.668 174.535L191.301 171.899Z" fill="#000200"/>
<path d="M197.222 147.232L185.672 143.688L185.367 144.96L196.917 148.505L197.222 147.232Z" fill="#000200"/>
<path d="M194.617 158.095L183.066 154.551L182.761 155.824L194.312 159.368L194.617 158.095Z" fill="#000200"/>
<path d="M193.801 161.492L182.25 157.947L181.837 159.671L193.387 163.215L193.801 161.492Z" fill="#000200"/>
<path d="M190.328 175.975L178.777 172.431L178.364 174.154L189.914 177.699L190.328 175.975Z" fill="#000200"/>
<path d="M192.015 168.931L180.465 165.387L180.146 166.716L191.697 170.26L192.015 168.931Z" fill="#000200"/>
<path d="M189.406 179.796L177.855 176.251L177.537 177.58L189.087 181.125L189.406 179.796Z" fill="#000200"/>
<path d="M195.551 154.187L184 150.643L183.557 152.489L195.108 156.033L195.551 154.187Z" fill="#000200"/>
<path d="M202.492 125.248L190.941 121.703L190.513 123.489L202.064 127.034L202.492 125.248Z" fill="#000200"/>
<path d="M201.574 129.091L190.023 125.546L189.701 126.89L201.252 130.434L201.574 129.091Z" fill="#000200"/>
<path d="M200.703 132.711L189.152 129.166L188.83 130.51L200.381 134.055L200.703 132.711Z" fill="#000200"/>
<path d="M199.015 139.758L187.465 136.213L187.048 137.949L198.599 141.494L199.015 139.758Z" fill="#000200"/>
</svg>
