<svg width="433" height="415" viewBox="0 0 433 415" fill="none" xmlns="http://www.w3.org/2000/svg">
<path d="M216.755 149.828C234.646 149.828 250.849 142.573 262.578 130.849C274.307 119.12 281.563 102.911 281.563 85.026C281.563 67.1302 274.307 50.9323 262.578 39.2031C250.849 27.474 234.651 20.2188 216.755 20.2188C198.859 20.2188 182.656 27.474 170.927 39.2031C159.203 50.9271 151.948 67.125 151.948 85.026C151.948 102.917 159.203 119.125 170.927 130.854C182.656 142.578 198.859 149.828 216.755 149.828ZM276.875 145.141C261.484 160.531 240.229 170.047 216.755 170.047C193.281 170.047 172.021 160.536 156.635 145.146C141.25 129.755 131.734 108.5 131.734 85.026C131.734 61.5469 141.25 40.2917 156.635 24.901C172.021 9.52083 193.281 0 216.755 0C240.229 0 261.49 9.52083 276.875 24.9063C292.26 40.2969 301.781 61.5521 301.781 85.026C301.781 108.495 292.26 129.75 276.875 145.141Z" fill="#FF914D"/>
<path d="M277.88 187.063C270.063 192.964 261.495 197.656 252.411 201.016C241.516 205.052 229.896 207.172 218.031 207.172C206.156 207.172 194.484 205.021 183.479 200.932C174.281 197.516 165.62 192.75 157.776 186.76C143.026 192.255 130.49 201.849 121.385 214.016C111.375 227.401 105.547 243.911 105.547 261.495V293.161H197.438V313.375H85.3281V261.495C85.3281 239.432 92.6354 218.729 105.198 201.932C117.818 185.057 135.76 172.13 156.922 165.755L162.177 164.172L166.359 167.766C173.599 173.99 181.766 178.807 190.505 182.057C199.141 185.266 208.438 186.953 218.031 186.953C227.536 186.953 236.797 185.266 245.464 182.057C254.198 178.828 262.339 174.063 269.521 167.922L273.969 164.125L279.469 166.109C302.094 174.266 318.661 186.036 329.969 201.917C341.229 217.74 347.01 237.292 348.094 261.078V261.505L348.12 303.271L348.125 313.375H237.089V293.161H327.974L327.953 261.943C327.052 242.115 322.453 226.13 313.542 213.609C305.521 202.339 293.792 193.589 277.88 187.063Z" fill="#FF914D"/>
<mask id="mask0_2_35" style="mask-type:luminance" maskUnits="userSpaceOnUse" x="0" y="325" width="433" height="90">
<path d="M0.666626 325.333H432.667V414.667H0.666626V325.333Z" fill="white"/>
</mask>
<g mask="url(#mask0_2_35)">
<path d="M412.542 345.938H20.9427V394.25H412.542V345.938ZM10.8385 325.724H432.76V414.469H0.729126V325.724H10.8385Z" fill="#FF914D"/>
</g>
<path fill-rule="evenodd" clip-rule="evenodd" d="M210.031 268.599C206.182 266.245 203.589 262.271 203.214 257.656L201.651 238.422C201.01 230.547 206.901 223.568 214.781 222.927C222.677 222.286 229.635 228.198 230.276 236.099L231.844 255.328C232.286 260.854 229.448 265.979 224.786 268.714L224.146 325.953H209.297L210.031 268.599Z" fill="#FF914D"/>
</svg>
